<svg width="43" height="24" viewBox="0 0 43 24" fill="none" xmlns="http://www.w3.org/2000/svg">
<path d="M0.749936 11.6708L12.0832 1.12778C13.3625 -0.0622635 15.4454 0.844934 15.4454 2.59213V12.3684L27.9773 1.02515C29.2631 -0.138646 31.3195 0.773702 31.3195 2.50794V12.3684H40.5748C42.296 12.3684 43.2133 14.398 42.076 15.6899L35.9415 22.6586C34.8014 23.9536 32.6664 23.2942 32.4553 21.5818L31.3195 12.3684L19.878 23.2278C18.6791 24.3658 16.6956 23.6406 16.5134 21.9976L15.4454 12.3684L4.60029 23.1349C3.42206 24.3046 1.41402 23.6124 1.20687 21.9651L0.127803 13.3847C0.0475566 12.7466 0.279058 12.1088 0.749936 11.6708Z" fill="#514BFF"/>
</svg>
