<?xml version="1.0" encoding="utf-8"?>
<!-- Generator: Adobe Illustrator 25.0.1, SVG Export Plug-In . SVG Version: 6.00 Build 0)  -->
<svg version="1.0" id="Layer_1" xmlns="http://www.w3.org/2000/svg" xmlns:xlink="http://www.w3.org/1999/xlink" x="0px" y="0px"
	 viewBox="0 0 312 216" style="enable-background:new 0 0 312 216;" xml:space="preserve">
<style type="text/css">
	.st0{fill:none;stroke:#000000;stroke-width:1.44;stroke-linecap:round;stroke-linejoin:round;}
	.st1{fill:#FFFFFF;}
	.st2{fill:#FF1100;}
	.st3{fill:#036288;}
	.st4{fill:#050B25;}
	.st5{fill:none;}
	.st6{fill:#B89500;}
	.st7{fill:none;stroke:#000000;stroke-width:0.5;}
	.st8{fill:none;stroke:#000000;stroke-width:0.3;}
	.st9{fill:none;stroke:#000000;stroke-width:0.72;}
	.st10{fill:none;stroke:#000000;stroke-width:0.18;}
	.st11{fill:none;stroke:#000000;stroke-width:0.24;}
</style>
<polygon class="st0" points="174.1,83.4 209.6,108.5 209.6,108.5 209.6,108.5 245,83.5 245,83.5 231.5,43.2 188,43.1 187.8,43.1 
	174.1,83.4 "/>
<path d="M70.8,91.3v8.9c0,0.5,0,1.1,0.2,1.6c0.4,0.6,1.1,1,1.9,0.9c1,0.1,1.9-0.6,2.1-1.6c0,0,0,0,0,0c0.1-0.4,0.1-0.8,0.1-1.2v-8.7
	h2.8v9.2c0.1,0.7,0,1.4-0.2,2.1c-0.3,1.1-1.7,2.6-4.6,2.6c-2.1,0-3.6-0.6-4.4-1.8c-0.5-0.8-0.7-1.7-0.6-2.6v-9.5H70.8z"/>
<path d="M82.1,94.6c0.2,0.4,0.4,0.8,0.4,1.2c0.4-0.3,0.8-0.5,1.2-0.8c0.6-0.3,1.2-0.4,1.8-0.4c1-0.1,2,0.5,2.4,1.4
	c0.1,0.5,0.2,0.9,0.2,1.4v7.3h-2.6v-6.5c0-1.1-0.2-1.5-0.9-1.5c-0.7,0.1-1.3,0.4-1.8,0.9v7.1h-2.6v-7.3c0-0.8-0.1-1.6-0.3-2.3
	L82.1,94.6z"/>
<path d="M93.1,94.6v10.2h-2.6V95L93.1,94.6z M93.4,92.1c0,0.9-0.7,1.6-1.6,1.6c-0.9,0-1.6-0.7-1.6-1.6c0-0.9,0.7-1.6,1.6-1.6
	c0,0,0,0,0,0C92.7,90.5,93.5,91.2,93.4,92.1C93.5,92.1,93.5,92.1,93.4,92.1"/>
<path d="M96.8,94.7l1.4,4.5c0.2,0.7,0.5,1.8,0.6,2.4c0.1-0.9,0.3-1.7,0.6-2.5l1.4-4.2h2.7l-3.7,10h-2.2L94.1,95L96.8,94.7z"/>
<path d="M109.6,98.8v-0.1c0-0.5-0.1-1-0.3-1.5c-0.3-0.4-0.7-0.6-1.2-0.6c-1,0-1.6,0.8-1.6,2.2l0,0L109.6,98.8z M112.2,103.8
	c-1,0.9-2.4,1.4-3.8,1.4c-2.9,0-4.7-2-4.7-5.2c-0.1-1.4,0.4-2.9,1.3-4c0.8-0.9,1.9-1.4,3.1-1.3c1.1-0.1,2.1,0.3,2.9,1
	c0.9,0.9,1.3,2.3,1.3,4.4v0.6h-5.8v0.1c0,1.6,0.8,2.4,2.1,2.4c0.9,0,1.8-0.4,2.5-1L112.2,103.8z"/>
<path d="M116.1,94.6c0.2,0.4,0.4,0.9,0.4,1.4c0.4-0.5,0.9-1,1.5-1.3c0.3-0.1,0.6-0.2,0.9-0.2c0.3,0,0.7,0.1,1,0.2l-0.7,2.3
	c-0.2-0.1-0.5-0.2-0.8-0.2c-0.6,0-1.2,0.3-1.6,0.8v7.1h-2.6v-6.7c0-1-0.1-2-0.4-2.9L116.1,94.6z"/>
<path d="M127.2,97.3c-0.8-0.4-1.6-0.7-2.5-0.7c-0.8,0-1.3,0.4-1.3,1s0.3,0.8,1.2,1l1.2,0.3c0.8,0.1,1.5,0.5,2,1.1
	c0.4,0.5,0.6,1.1,0.6,1.7c0,2.1-1.7,3.5-4.3,3.5c-1.4-0.1-2.8-0.5-4-1.2l0.9-1.9c1,0.6,2.1,1,3.3,1.1c0.7,0.1,1.3-0.4,1.3-1.1
	c0,0,0,0,0,0c0-0.7-0.5-1-1.5-1.2l-1.2-0.2c-0.7-0.1-1.3-0.5-1.8-1c-0.4-0.5-0.6-1.2-0.6-1.8c0-2,1.6-3.3,3.9-3.3
	c1.3,0,2.5,0.3,3.6,0.9L127.2,97.3z"/>
<path d="M132.9,94.6v10.2h-2.6V95L132.9,94.6z M133.2,92.1c-0.1,0.9-0.9,1.6-1.7,1.5c-0.8-0.1-1.4-0.7-1.5-1.5
	c0-0.9,0.7-1.6,1.6-1.6c0,0,0,0,0,0C132.5,90.5,133.2,91.2,133.2,92.1C133.2,92.1,133.2,92.1,133.2,92.1"/>
<path d="M139.7,96.7h-1.7v5c0,1.3,0.2,1.6,1.1,1.6c0.3,0,0.7-0.1,1-0.2l0.3,1.6c-0.7,0.3-1.4,0.4-2.1,0.4c-1.1,0.1-2.2-0.5-2.7-1.5
	c-0.2-0.5-0.2-1-0.2-1.6v-5.4h-1v-1.8h1c0-0.8,0-1.6,0.1-2.4l2.7-0.7c-0.1,1-0.2,2-0.2,3h2.3L139.7,96.7z"/>
<path d="M143.8,94.7l1.7,5.8c0.2,0.6,0.5,2.1,0.5,2.1s0.2-1.1,0.3-1.6c0.1-0.3,0.2-0.9,0.4-1.4l1.5-4.8h2.7l-3.6,10.2
	c-0.7,1.9-1.2,2.8-1.9,3.3c-0.7,0.5-1.5,0.8-2.4,0.9l-0.9-1.7c0.6-0.1,1.1-0.4,1.6-0.7c0.3-0.2,0.5-0.5,0.7-0.8
	c0.2-0.4,0.4-0.8,0.6-1.2h-0.7c-0.3-1-0.8-2.5-0.9-2.8l-2.4-7L143.8,94.7z"/>
<path d="M156.8,97.6c-0.2,0.7-0.3,1.5-0.3,2.2c0,0.9,0.1,1.7,0.3,2.5c0.2,0.5,0.8,0.8,1.3,0.8c1.1,0,1.6-1,1.6-3.4
	c0.1-0.9-0.1-1.9-0.5-2.7c-0.5-0.6-1.4-0.7-2-0.2C157.1,97.1,156.9,97.3,156.8,97.6 M161.5,96.2c0.8,1,1.2,2.3,1.1,3.7
	c0.1,1.4-0.3,2.8-1.2,3.9c-0.8,1-2,1.5-3.3,1.4c-2.7,0-4.5-2-4.5-5.2s1.8-5.2,4.5-5.2C159.4,94.6,160.7,95.2,161.5,96.2"/>
<path d="M168.3,92.3c-0.5-0.1-1,0.3-1.1,0.9c0,0.1,0,0.2,0,0.3v1.4h2.6l-0.7,1.8h-1.9v8.2h-2.6v-8.2h-0.9v-1.8h1
	c-0.1-0.5-0.1-0.9-0.1-1.4c-0.1-1.6,1-3,2.6-3.1c0.2,0,0.4,0,0.6,0c0.8,0,1.6,0.2,2.4,0.6l-0.8,1.6
	C169.1,92.4,168.7,92.3,168.3,92.3"/>
<path d="M203.2,118.8l-3,9.4c-0.3,0.9-0.6,2.1-0.8,2.7c-0.2,1-0.6,3.2-0.6,3.2s-0.7-2.9-1-4.1l-3.4-11.6l-5.3,0.6l4.7,13.9
	c0.2,0.6,1.2,3.7,1.9,5.6h1.3c-0.3,0.8-0.7,1.6-1.1,2.3c-0.4,0.6-0.9,1.2-1.5,1.6c-1,0.6-2.1,1-3.2,1.3l1.8,3.4
	c1.7-0.2,3.4-0.8,4.8-1.8c1.4-1,2.4-2.7,3.8-6.5l7.2-20.1L203.2,118.8z M176.5,133.4c-0.9,0.9-2.2,1.5-3.5,1.6
	c-0.9,0-1.7-0.4-2.3-1.1c-0.7-0.9-1-2.4-1-5c0-4.6,1.1-6.6,3.4-6.6c1.2,0.1,2.3,0.7,3.1,1.6l2.5-3.4c-0.6-0.5-1.2-1-1.9-1.4
	c-1.2-0.6-2.5-0.9-3.8-0.9c-1.7,0-3.4,0.5-4.9,1.5c-2.3,1.6-4.1,4.6-4.1,9.1c0,6.4,3.2,10.2,8.6,10.2c1.7,0,3.4-0.4,4.8-1.2
	c0.7-0.4,1.3-0.9,1.8-1.5l-2.4-3.1L176.5,133.4z M234.6,126.4c0-2.7,1.1-4.3,3.1-4.3c0.9-0.1,1.8,0.4,2.3,1.2c0.5,0.9,0.7,2,0.6,3
	v0.2h-6L234.6,126.4z M246,130.3v-1.2c0-4.1-0.8-6.8-2.6-8.6c-1.6-1.4-3.6-2.2-5.7-2.1c-2.4-0.1-4.7,0.9-6.2,2.7
	c-1.8,1.9-2.5,4.3-2.5,7.9c0,6.2,3.7,10.2,9.4,10.2c2.7,0,5.4-1,7.4-2.7l-2-3.1c-1.4,1.2-3.1,2-5,2c-2.7,0-4.2-1.8-4.2-4.8v-0.1
	L246,130.3z M155.4,118.2c-2.1,0-4,0.8-5.6,2.1c0-0.2,0.1-1,0.1-1.7v-6.6h-5.3c0,0.3,0,3.2,0,3.6v22.9h5.2v-14.2
	c1.1-1.1,2.6-1.7,4.1-1.8c1.5,0,2,0.7,2,2.7v13.3h5v-13.8c0.1-1.2-0.1-2.5-0.5-3.7C159.9,119.3,157.9,118.2,155.4,118.2
	 M220.5,133.4c-0.6,0.7-1.6,1.2-2.6,1.3c-2.7,0-3.6-1.4-3.6-5.6s1-6.3,3.3-6.3c1.1,0.1,2.1,0.5,2.8,1.3L220.5,133.4z M225.5,112.1
	h-5.1v4.6c0,1,0,2,0.1,2.9c-1-0.8-2.2-1.2-3.5-1.1c-5,0-8.4,4.2-8.4,10.4c0,6.2,3.2,10,8.2,10c1.7,0,3.3-0.6,4.6-1.7
	c0,0.4,0.1,0.8,0.3,1.2h4.6c-0.3-0.8-0.7-2.4-0.7-7.2V112.1z M187.6,135.4c-0.4,0-0.8-0.2-1-0.6c-0.3-0.5-0.4-1-0.4-4.4v-15.4
	c0-0.7,0-2.4,0-3h-5.4c0.1,1.1,0.1,3.4,0.1,5v14.8c0,2.8,0.1,3.4,0.4,4.4c0.6,1.7,2.4,2.7,4.6,2.7c1.1,0,2.1-0.2,3.1-0.5l-0.9-3.1
	C188,135.4,187.8,135.4,187.6,135.4 M139.8,135.4c-1.8,0-2.2-0.7-2.2-3.2v-9.9h3.3l1.3-3.6h-4.6c0-1.3,0.1-2.7,0.1-4h-5.1
	c-0.1,1.2-0.1,2.4-0.1,4h-2v3.6h2V133c-0.1,1,0,2.1,0.3,3.1c0.6,1.7,2.7,2.9,5.3,2.9c1.4,0,2.9-0.3,4.2-0.9l-0.6-3.1
	C141,135.2,140.4,135.3,139.8,135.4 M79.4,122.1l-3.2-0.9c-2.2-0.6-3-1.3-3-2.7c0-1.8,1.5-3.1,3.7-3.1c2.2,0.1,4.4,0.8,6.3,2.1
	l2.5-3.9c-2.7-1.8-5.8-2.8-9-2.7c-5.7,0-9.6,3.4-9.6,8.3c0,1.4,0.4,2.9,1.1,4.1c1,1.6,2.6,2.7,5.3,3.4l3,0.8
	c2.4,0.7,3.5,1.7,3.5,3.5c0,2.4-1.6,3.7-4.7,3.7c-2.6-0.1-5.1-0.8-7.3-2.2l-2,4.2c2.8,1.6,5.9,2.4,9.2,2.4c6.7,0,11.1-3.6,11.1-9
	C86.2,126.1,83.8,123.3,79.4,122.1 M110.8,118.3c-0.6,0-1.2,0.1-1.7,0.3c-1.2,0.6-2.2,1.5-2.9,2.5c-0.1-1-0.3-2-0.8-2.8l-4.6,1.2
	c0.6,1.9,0.8,3.8,0.7,5.8v13.2h5.2v-14c0.7-1,1.9-1.6,3.2-1.7c0.5,0,1.1,0.1,1.5,0.4l1.4-4.6C112.2,118.4,111.5,118.3,110.8,118.3
	 M96.7,135.4c-1.8,0-2.2-0.7-2.2-3.2v-9.9h3.3l1.3-3.6h-4.6c0-1.3,0-2.7,0.1-4h-5.2c-0.1,1.2-0.1,2.4-0.1,4h-2v3.6h2V133
	c-0.1,1,0,2.1,0.4,3.1c0.6,1.7,2.7,2.9,5.3,2.9c1.4,0,2.9-0.3,4.2-0.9l-0.7-3.1C97.9,135.2,97.3,135.3,96.7,135.4 M123,134.1
	c-0.7,0.8-1.6,1.3-2.7,1.3c-1.3,0-2.3-1.1-2.3-2.4c0-0.1,0-0.1,0-0.2c0-2.4,1.2-3,4.8-3h0.2L123,134.1z M128.1,132.3V132l0.1-6.6
	c0.1-1.2,0-2.4-0.3-3.6c-0.8-2.2-3.1-3.4-6.4-3.4c-1.9,0-3.7,0.4-5.4,1.2c-1.1,0.4-2.2,1-3.2,1.6l2.2,3.7c1.7-1.3,3.6-2.1,5.7-2.2
	c1.9,0,2.3,0.7,2.3,2.9v0.8c-0.4,0-0.8,0-1.2,0c-6.3,0-9.5,2.2-9.5,6.8c0,3.9,2.4,6.2,6.8,6.2c1.4,0.1,2.8-0.3,4-1.1
	c0.4-0.3,0.8-0.6,1.2-1c0.6,1.1,1.6,1.9,2.8,2.4l2.7-3.3C128.5,135.2,128.1,134.4,128.1,132.3"/>
<path d="M80.1,151.6c-1.2-1-2.7-1.6-4.2-1.6c-1.1-0.1-2.1,0.3-2.9,1c-1.4,1.3-1.7,3.5-1.7,6.5c0,2.9,0.5,4.7,1.5,5.7
	c0.9,0.8,2,1.2,3.2,1.1c0.8,0,1.6-0.1,2.3-0.5v-4.6h-3.1l-0.5-3.3h7.8v9.6c-2,1.2-4.3,1.8-6.7,1.8c-2.7,0.2-5.2-1-6.9-3.1
	c-1.5-2-2.3-4.5-2.1-7c0-4.2,1.4-7.3,4.2-9.1c1.4-1,3.2-1.5,4.9-1.4c2.3,0,4.6,0.8,6.4,2.3L80.1,151.6z"/>
<path d="M89.5,149.6v11.5c0,2.5,0,2.9,0.2,3.3c0.2,0.3,0.5,0.4,0.8,0.4c0.1,0,0.3,0,0.4,0l0.7,2.3c-0.7,0.3-1.5,0.4-2.3,0.4
	c-1.5,0.1-2.8-0.7-3.4-2c-0.3-0.7-0.4-1.2-0.4-3.3v-11c0-1.5,0-3-0.2-4.5l4-0.9c0.2,1.3,0.3,2.6,0.2,3.8"/>
<path d="M100.8,160.7c-2.7,0-3.6,0.5-3.6,2.2c-0.1,1,0.6,1.8,1.6,1.9c0,0,0.1,0,0.1,0c0.8,0,1.5-0.4,2-1l0.1-3.2H100.8z M95.8,152.9
	c1.3-0.6,2.6-0.9,4-0.9c2.5,0,4.2,0.9,4.8,2.6c0.3,0.9,0.3,1.8,0.2,2.7l-0.1,5v0.3c-0.2,1.2,0.4,2.4,1.4,3.1l-2,2.4
	c-0.9-0.3-1.7-1-2.1-1.8c-0.3,0.3-0.6,0.5-0.9,0.8c-0.9,0.6-1.9,0.9-3,0.8c-3.3,0-5.1-1.7-5.1-4.6c0-3.5,2.4-5.1,7.1-5.1
	c0.3,0,0.6,0,0.9,0v-0.6c0-1.6-0.3-2.2-1.7-2.2c-1.6,0.1-3,0.7-4.3,1.7l-1.7-2.8C94.1,153.7,94.9,153.3,95.8,152.9"/>
<path d="M117.2,156c-1.1-0.7-2.4-1-3.6-1.1c-1.1,0-1.9,0.6-1.9,1.4s0.5,1.2,1.8,1.5l1.8,0.5c1.2,0.2,2.2,0.8,2.9,1.7
	c0.6,0.7,0.8,1.6,0.8,2.5c0,3.1-2.5,5.1-6.3,5.1c-2.1-0.1-4.2-0.7-6-1.7l1.4-2.8c1.5,0.9,3.2,1.5,4.9,1.7c1,0.1,1.9-0.6,2-1.6
	c0,0,0,0,0,0c0-1-0.7-1.5-2.3-1.8L111,161c-1-0.2-2-0.7-2.7-1.5c-0.6-0.8-0.8-1.7-0.8-2.7c0-2.9,2.3-4.8,5.7-4.8
	c1.9,0,3.7,0.5,5.3,1.4L117.2,156z"/>
<path d="M124.6,157.2c0,1.5,0.9,2.1,2.3,2.1c1.5,0,2.4-0.8,2.4-2.1c0.1-1.1-0.8-2.1-2-2.2c-0.1,0-0.3,0-0.4,0
	c-1.1-0.2-2.1,0.6-2.3,1.7C124.6,156.8,124.6,157,124.6,157.2 M136.1,154c-0.7,0.7-1.7,1.1-2.7,1.1c-0.3,0-0.7,0-1-0.1
	c0.6,0.7,0.9,1.5,0.9,2.4c0,2.6-2.3,4.4-5.5,4.4h-0.6c-1,0.4-1.5,0.8-1.5,1.2c0,0.2,0.2,0.4,0.6,0.4h2.1c2.3,0,3.4,0.4,4.5,1.3
	c0.9,0.8,1.3,2,1.3,3.2c0,1.1-0.4,2.2-1.2,3c-1.3,1.4-3.5,1.9-5.8,1.9c-2.1,0-4.3-0.4-5.6-1.6c-0.8-0.7-1.2-1.6-1.2-2.6
	c0-0.5,0.1-1,0.3-1.5h3.6c-0.1,0.3-0.2,0.7-0.2,1c0,1.2,1,1.8,2.8,1.8c0.8,0.1,1.7-0.1,2.4-0.5c0.6-0.3,0.9-0.9,0.9-1.5
	c0-1.3-1.2-1.7-2.7-1.8h-1.7c-1.2,0.1-2.4-0.1-3.6-0.5c-0.8-0.3-1.2-1.1-1.1-1.9c0-0.9,0.3-1.9,2.7-2.5c-2-0.3-3.3-2.1-3.2-4.1
	c0-3,2.5-5,6.2-5c0.9,0,1.8,0.1,2.7,0.4c0.6,0.2,1.2,0.3,1.8,0.3c1.1,0,2.2-0.5,3.1-1.3L136.1,154z"/>
<path d="M140.5,156.5c-0.3,1.1-0.4,2.2-0.4,3.3c-0.1,1.3,0.1,2.5,0.5,3.7c0.4,0.8,1.1,1.2,2,1.2c1.7,0,2.4-1.5,2.4-5
	c0-2-0.3-3.3-0.8-4c-0.4-0.5-1-0.8-1.7-0.8C141.6,154.9,140.8,155.6,140.5,156.5 M147.5,154.3c1.2,1.5,1.8,3.5,1.7,5.4
	c0.2,2.1-0.5,4.1-1.9,5.7c-1.2,1.4-3,2.2-4.9,2.1c-4,0-6.6-3-6.6-7.7s2.6-7.7,6.6-7.7C144.4,152,146.2,152.8,147.5,154.3"/>
<path d="M153.3,152.2l1.2,5.7c0.4,1.7,0.8,4.6,0.8,4.6c0.3-1.7,0.6-3.4,1.1-5.1l1.4-5h3.7l1.2,4.9c0.7,2.7,1.1,5.2,1.1,5.2
	c0.1-0.6,0.4-2.9,0.8-4.8l1.1-5.3h4l-4.2,14.8h-3.6l-1.3-5.1c-0.3-1.2-0.7-2.6-0.8-3.6c-0.1-0.7-0.2-0.9-0.2-1.5
	c-0.1,0.6-0.2,1.3-0.4,1.9c-0.3,1.3-0.9,3.8-1.3,5.2l-0.8,3h-3.6l-4-14.5L153.3,152.2z"/>
<polygon class="st1" points="188,43.4 174.4,83.5 209.8,108.5 245.1,83.7 231.6,43.4 "/>
<path class="st2" d="M210.9,61.5l-26-0.1l-5.6,16.1c0,0-2,3.8,2.8,8.2s26.6,19.4,27.5,17.7l6.4-7L210.9,61.5z"/>
<polygon class="st3" points="209.8,61.5 232.7,61.5 209.6,78.1 "/>
<path class="st1" d="M195.3,57.6c-0.2,0.1-0.3,0.3-0.4,0.5"/>
<path class="st1" d="M195.9,58.1c-0.1-0.2-0.3-0.4-0.5-0.5"/>
<path class="st1" d="M223.6,57.5c-0.2,0.1-0.4,0.3-0.4,0.5"/>
<path class="st1" d="M186.4,76.3c-0.3,0.2-1.2,0.6-1.5-0.7c-0.5-2.6-2.5-1.2-3-0.3s-1.1,0.8-1.1,0.8s0.6,0.1,0.7,1.1s1.2,3.2,2.8,1
	c0.8-1.1,1.6,0.3,1.8,0.6l0.1,0.3c0.1,0.4,0.2,2.1-1.2,1.8c-2.7-0.5-1.9,1.8-1.3,2.6c0.2,0.3,0.2,0.8,0,1.1c0.5-0.2,1.1-0.2,1.6,0
	c1,0.3,3.5,0.2,2-2c-0.8-1.1,0.5-1.3,0.8-1.4h0.2c0.4,0.1,2,0.2,1.3,1.3c-1.4,2.3,1.1,2.5,2.1,2.1s1.4,0.1,1.4,0.1s-0.4-0.5,0.2-1.3
	s1.2-3.2-1.5-2.5c-1.3,0.3-1.1-1.3-1.1-1.7s0.7-1.6,1.6-0.6c1.8,2.1,2.8-0.4,2.8-1.4s0.6-1.2,0.6-1.2s-0.6,0.2-1.2-0.7
	s-2.7-2.2-3,0.5c-0.1,1.3-1.5,0.8-1.8,0.6s-1.6-1.5-0.3-2c2.6-0.9,0.8-2.6-0.2-2.9c-1-0.3-1-0.9-1-0.9s0,0.6-1,0.8s-3,1.7-0.5,2.9
	c1.2,0.6,0.1,1.5-0.2,1.7L186.4,76.3z"/>
<path class="st2" d="M186.4,76.3l-0.3-0.5l-0.4,0.2h-0.1c-0.1-0.1-0.2-0.3-0.2-0.4c-0.1-0.5-0.3-1-0.6-1.4c-0.3-0.3-0.7-0.5-1.1-0.5
	c-0.5,0-1,0.2-1.4,0.5c-0.4,0.3-0.7,0.6-0.9,1c-0.1,0.2-0.2,0.3-0.4,0.4h-0.2v0.3l0.1-0.3l0,0v0.3l0.1-0.3c-0.3-0.1-0.6,0.1-0.7,0.4
	c0,0,0,0,0,0c-0.1,0.3,0.1,0.6,0.4,0.7l0.1-0.3l-0.1,0.3l0,0l0.1-0.3l-0.1,0.3l0.1,0.1c0.1,0.2,0.1,0.4,0.1,0.5l0,0
	c0,0.5,0.2,1.1,0.5,1.5c0.2,0.2,0.4,0.5,0.6,0.6c0.3,0.2,0.6,0.3,0.9,0.3c0.8-0.1,1.4-0.5,1.8-1.2l0.2-0.2l0,0l0,0l0,0l0,0h0.1
	c0.1,0.1,0.2,0.2,0.3,0.3c0.1,0.1,0.2,0.3,0.3,0.4l0.5-0.3l-0.6,0.1l0.1,0.3c0,0.1,0,0.2,0,0.4c0,0.2,0,0.4-0.1,0.7l-0.1,0.1h-0.2
	h-0.1c-0.3,0-0.5-0.1-0.8-0.1c-0.5,0-1,0.1-1.4,0.5c-0.3,0.3-0.4,0.7-0.4,1.1c0,0.7,0.3,1.4,0.6,1.9l0.1,0.3v0.2l0,0l0,0l0.2,0.1
	l-0.2-0.2l0,0l0.2,0.1l-0.2-0.2c-0.2,0.2-0.2,0.5,0,0.7c0.2,0.2,0.5,0.2,0.7,0.1l-0.1-0.2l0.1,0.2l0,0l-0.1-0.2l0.1,0.2
	c0.2-0.1,0.4-0.1,0.6-0.1c0.2,0,0.4,0,0.6,0.1c0.4,0.1,0.7,0.2,1.1,0.2c0.4,0,0.9-0.1,1.3-0.3c0.2-0.1,0.4-0.3,0.6-0.5
	c0.1-0.2,0.2-0.5,0.2-0.7c0-0.6-0.2-1.1-0.6-1.5c-0.1-0.1-0.1-0.2-0.1-0.3l0,0l0.2-0.1l0.4-0.1l-0.1-0.5v0.5h0.2v-0.5l-0.1,0.5
	c0.2,0.1,0.4,0.2,0.6,0.3l0.2,0.1l0,0c0,0.1,0,0.2-0.1,0.2c-0.3,0.4-0.5,0.9-0.5,1.4c0,0.5,0.3,1.1,0.8,1.3c0.4,0.2,0.9,0.3,1.3,0.3
	c0.4,0,0.8-0.1,1.1-0.2c0.1-0.1,0.3-0.1,0.5-0.1l0.2,0.1l0,0l0.2-0.2l-0.2,0.1l0,0l0.2-0.2l-0.2,0.1c0.1,0.1,0.2,0.2,0.4,0.2
	c0.1,0,0.3,0,0.4-0.1c0.1-0.1,0.2-0.2,0.2-0.4c0-0.1,0-0.3-0.1-0.4l-0.2,0.2l0.2-0.1l0,0l-0.2,0.2l0.2-0.1v-0.1
	c0-0.2,0.1-0.4,0.2-0.5c0.4-0.5,0.6-1.2,0.6-1.8c0-0.4-0.1-0.8-0.4-1.2c-0.4-0.4-0.9-0.6-1.4-0.5c-0.3,0-0.7,0-1,0.1h-0.2h-0.1
	l-0.1-0.2c-0.1-0.1-0.1-0.3-0.1-0.4c0-0.2,0-0.3,0-0.5l0,0l0,0l0.2-0.3l0.1-0.1l0,0l0,0l0.2,0.2c0.4,0.6,1,0.9,1.7,1
	c0.4,0,0.7-0.1,1-0.4c0.4-0.3,0.6-0.7,0.8-1.1c0.2-0.4,0.2-0.8,0.2-1.2v-0.1c0-0.2,0-0.4,0.1-0.6h0.1l0,0l-0.1-0.3l0.1,0.3l0,0
	l-0.1-0.3l0.1,0.3c0.3-0.1,0.5-0.4,0.4-0.6c0,0,0,0,0,0c-0.1-0.3-0.4-0.4-0.7-0.4l0.1,0.3v-0.3l0,0l0.1,0.3v-0.3l0,0
	c-0.1,0-0.2,0-0.5-0.4c-0.2-0.3-0.5-0.6-0.9-0.9c-0.4-0.3-0.9-0.4-1.4-0.5c-0.5,0-0.9,0.2-1.2,0.6c-0.3,0.4-0.4,1-0.5,1.5
	c0,0.2-0.1,0.3-0.1,0.3h-0.2c-0.3,0-0.5-0.1-0.7-0.2l-0.1,0.1l0.1-0.1l0,0l-0.1,0.1l0.1-0.1c-0.1-0.1-0.3-0.2-0.4-0.4
	c-0.1-0.1-0.2-0.3-0.2-0.5l0,0l0.2-0.1c0.5-0.1,0.9-0.4,1.2-0.7c0.3-0.3,0.5-0.7,0.5-1.1c0-0.5-0.3-1-0.7-1.4
	c-0.3-0.3-0.8-0.6-1.2-0.8c-0.4-0.1-0.5-0.2-0.5-0.3v-0.1h-0.4h0.4l0,0h-0.4h0.4h-0.6h-0.6h0.3h-0.3l0,0h0.3h-0.3l0,0
	c0,0-0.1,0.2-0.6,0.3c-0.5,0.1-1,0.3-1.4,0.7c-0.5,0.3-0.8,0.9-0.8,1.4c0,0.4,0.2,0.7,0.4,1c0.3,0.3,0.7,0.6,1.1,0.8
	c0.1,0,0.2,0.1,0.2,0.2l0,0l0,0l0,0l0,0l0,0l0,0v0.1c-0.2,0.2-0.3,0.4-0.6,0.6l-0.1,0.1L186,76L186.4,76.3l-0.2-0.4L186.4,76.3
	l0.5,0.3l0.1-0.1l-0.4-0.3l0.4,0.4c0.2-0.1,0.3-0.3,0.5-0.5c0.3-0.3,0.4-0.6,0.5-1c0-0.2-0.1-0.5-0.2-0.7c-0.2-0.2-0.4-0.4-0.7-0.5
	c-0.3-0.1-0.5-0.3-0.7-0.5c-0.1-0.1-0.1-0.2-0.1-0.3c0.1-0.2,0.2-0.5,0.4-0.6c0.3-0.2,0.6-0.3,0.9-0.4c0.5-0.1,0.9-0.3,1.2-0.7
	c0.1-0.2,0.2-0.4,0.2-0.6c0-0.3-0.2-0.6-0.5-0.6c0,0,0,0,0,0c-0.3,0-0.6,0.2-0.6,0.5l0,0c0,0.2,0.1,0.5,0.2,0.7
	c0.3,0.4,0.7,0.6,1.1,0.8c0.3,0.1,0.6,0.3,0.8,0.5c0.2,0.2,0.3,0.4,0.4,0.6l-0.1,0.3c-0.2,0.2-0.5,0.4-0.8,0.5
	c-0.3,0.1-0.5,0.3-0.7,0.5c-0.2,0.2-0.3,0.4-0.2,0.7c0,0.4,0.2,0.8,0.5,1.2c0.1,0.2,0.2,0.3,0.4,0.4c0.1,0.1,0.2,0.2,0.4,0.3
	c0.4,0.2,0.8,0.3,1.2,0.3c0.3,0,0.7-0.1,0.9-0.3c0.3-0.3,0.4-0.6,0.5-1c0-0.4,0.1-0.7,0.3-1c0.1-0.1,0.2-0.1,0.3-0.1
	c0.3,0,0.5,0.1,0.7,0.3c0.2,0.1,0.4,0.3,0.6,0.6c0.3,0.5,0.9,0.9,1.5,0.9c0.1,0,0.2,0,0.3,0l0.3-0.3V76l-0.2-0.3h-0.4
	c-0.2,0.1-0.4,0.2-0.6,0.3c-0.3,0.4-0.4,0.8-0.4,1.3v0.1c0,0.4-0.1,0.7-0.3,1.1c-0.1,0.2-0.2,0.3-0.3,0.4l-0.3,0.1
	c-0.1,0-0.4-0.1-0.9-0.6c-0.3-0.3-0.7-0.6-1.1-0.6c-0.2,0-0.5,0.1-0.7,0.2c-0.2,0.2-0.4,0.4-0.6,0.6c-0.1,0.2-0.2,0.4-0.2,0.6
	c0,0.2-0.1,0.4-0.1,0.6c0,0.3,0.1,0.7,0.2,1c0.1,0.2,0.3,0.4,0.4,0.5c0.2,0.1,0.5,0.2,0.7,0.2c0.2,0,0.3,0,0.5-0.1
	c0.2-0.1,0.5-0.1,0.7-0.1c0.4,0,0.5,0.1,0.5,0.2c0.1,0.1,0.1,0.3,0.1,0.4c0,0.4-0.2,0.8-0.4,1.2c-0.3,0.3-0.5,0.7-0.5,1.2
	c0,0.3,0.1,0.5,0.2,0.7c0.1,0.1,0.2,0.2,0.4,0.2c0.1,0,0.3,0,0.4-0.1c0.1-0.1,0.2-0.2,0.2-0.4c0-0.1,0-0.3-0.1-0.4
	c-0.3-0.3-0.7-0.5-1.1-0.5c-0.3,0-0.6,0.1-0.9,0.2l0,0c-0.2,0.1-0.5,0.1-0.7,0.1c-0.3,0-0.5,0-0.8-0.2c-0.1-0.1-0.2-0.2-0.2-0.4
	c0-0.3,0.1-0.6,0.3-0.9c0.2-0.2,0.2-0.5,0.2-0.8c0-0.3-0.1-0.6-0.4-0.8c-0.3-0.2-0.6-0.4-0.9-0.4c-0.3-0.1-0.6-0.1-0.6-0.1H188
	c-0.3,0.1-0.5,0.1-0.8,0.2c-0.2,0.1-0.4,0.2-0.5,0.4c-0.2,0.2-0.3,0.4-0.3,0.7c0,0.3,0.1,0.7,0.4,0.9c0.2,0.3,0.3,0.6,0.4,0.9V84
	c-0.1,0.1-0.2,0.1-0.3,0.2c-0.2,0.1-0.4,0.1-0.6,0.1c-0.3,0-0.5,0-0.8-0.1c-0.3-0.1-0.7-0.2-1-0.2c-0.4,0-0.8,0.1-1.1,0.2l0.3,0.5
	l0.5,0.3c0.3-0.5,0.3-1.2,0-1.7l0,0c-0.3-0.4-0.4-0.9-0.5-1.4c0-0.2,0-0.3,0.1-0.3s0.2-0.1,0.6-0.1c0.2,0,0.4,0,0.6,0h0.3
	c0.3,0,0.6-0.1,0.8-0.2c0.3-0.2,0.5-0.5,0.6-0.8c0.1-0.5,0.2-1,0.1-1.4l-0.1-0.3l-0.1-0.2c-0.1-0.1-0.2-0.4-0.5-0.7
	c-0.1-0.2-0.3-0.3-0.4-0.4c-0.2-0.1-0.5-0.2-0.7-0.2c-0.4,0-0.8,0.2-1.1,0.6c-0.5,0.6-0.8,0.7-0.9,0.7l-0.2-0.1
	c-0.2-0.2-0.3-0.4-0.4-0.6c-0.1-0.2-0.2-0.5-0.2-0.7l0,0c0-0.5-0.2-0.9-0.5-1.3c-0.2-0.2-0.4-0.3-0.6-0.3c-0.3-0.1-0.6,0.1-0.7,0.4
	c0,0.1,0,0.3,0.1,0.4c0.1,0.1,0.2,0.2,0.4,0.2h0.2c0.3,0,0.5-0.1,0.7-0.2c0.3-0.2,0.6-0.5,0.8-0.8c0.2-0.2,0.4-0.3,0.6-0.5
	c0.2-0.2,0.4-0.3,0.7-0.3l0.3,0.2c0.2,0.3,0.3,0.6,0.4,0.9c0,0.4,0.2,0.7,0.5,1c0.2,0.2,0.5,0.4,0.9,0.4c0.4,0,0.7-0.1,1-0.3
	l0.2-0.1L186.4,76.3z"/>
<path class="st1" d="M207.7,91.1c-0.3,0.2-1.2,0.7-1.5-0.7c-0.5-2.6-2.5-1.2-3-0.3s-1.1,0.8-1.1,0.8s0.6,0.1,0.7,1.1s1.2,3.2,2.8,1
	c0.8-1.1,1.6,0.3,1.8,0.6l0.1,0.3c0.1,0.4,0.2,2.1-1.2,1.8c-2.7-0.5-1.9,1.8-1.3,2.6c0.2,0.3,0.2,0.8,0,1.1c0.5-0.2,1.1-0.2,1.6,0
	c1,0.3,3.5,0.2,1.9-2c-0.8-1.1,0.5-1.3,0.9-1.4h0.2c0.4,0.1,2,0.2,1.3,1.3c-1.4,2.3,1.1,2.5,2.1,2.1s1.4,0.1,1.4,0.1
	s-0.4-0.5,0.3-1.3s1.2-3.2-1.5-2.5c-1.3,0.3-1.1-1.3-1.1-1.7s0.7-1.6,1.6-0.6c1.8,2,2.8-0.4,2.8-1.4S217,91,217,91s-0.6,0.2-1.2-0.7
	s-2.7-2.1-3,0.5c-0.1,1.3-1.5,0.8-1.8,0.6s-1.6-1.5-0.3-2c2.6-0.9,0.8-2.6-0.2-2.9s-1-0.9-1-0.9s0,0.6-1,0.8s-3,1.7-0.5,2.9
	C209.2,89.9,208,90.7,207.7,91.1L207.7,91.1z"/>
<path class="st1" d="M228.6,76.9c-0.3,0.2-1.2,0.7-1.5-0.7c-0.5-2.6-2.5-1.2-3-0.3s-1.1,0.8-1.1,0.8s0.6,0.1,0.7,1.1s1.2,3.2,2.8,1
	c0.8-1.1,1.6,0.3,1.8,0.6l0.1,0.3c0.1,0.4,0.2,2.1-1.2,1.8c-2.7-0.5-1.9,1.8-1.3,2.6c0.2,0.3,0.2,0.8,0,1.1c0.5-0.2,1.1-0.2,1.7,0
	c1,0.3,3.5,0.2,2-2c-0.8-1.1,0.5-1.3,0.8-1.4h0.2c0.4,0,2,0.2,1.3,1.3c-1.4,2.3,1.1,2.5,2.1,2.1s1.4,0.1,1.4,0.1s-0.4-0.5,0.2-1.3
	s1.1-3.1-1.5-2.5c-1.3,0.3-1.1-1.3-1.1-1.7s0.7-1.6,1.6-0.6c1.8,2,2.8-0.4,2.8-1.4s0.6-1.2,0.6-1.2s-0.6,0.2-1.2-0.7s-2.7-2.2-3,0.5
	c-0.1,1.3-1.5,0.8-1.8,0.6s-1.6-1.5-0.3-2c2.6-0.9,0.8-2.6-0.2-2.9s-0.9-0.9-0.9-0.9s0,0.6-1,0.8s-3,1.7-0.5,2.9
	c1.2,0.6,0.1,1.5-0.2,1.7L228.6,76.9z"/>
<path class="st4" d="M228.6,76.9l-0.3-0.5l-0.4,0.2h-0.1c-0.1-0.1-0.1-0.3-0.2-0.4c-0.1-0.5-0.3-1-0.6-1.4c-0.3-0.3-0.7-0.5-1.2-0.5
	c-0.5,0-1,0.2-1.4,0.5c-0.4,0.3-0.7,0.6-0.9,1c-0.1,0.2-0.2,0.3-0.4,0.4h-0.1v0.3l0.1-0.3l0,0v0.3l0.1-0.3c-0.3-0.1-0.6,0.1-0.7,0.4
	s0.1,0.6,0.4,0.7l0.1-0.3l-0.1,0.3l0,0l0.1-0.3l-0.1,0.3l0,0c0,0,0.2,0.1,0.2,0.6c0,0.5,0.2,1,0.5,1.5c0.2,0.3,0.4,0.5,0.6,0.7
	c0.3,0.2,0.6,0.3,0.9,0.3c0.8-0.1,1.4-0.5,1.8-1.2l0,0l0.2-0.2l0,0l0,0l0,0l0,0h0.1c0.1,0.1,0.2,0.2,0.3,0.3
	c0.1,0.1,0.2,0.3,0.3,0.4l0.5-0.3l-0.6,0.1l0.1,0.3c0,0,0,0.2,0,0.4c0,0.2,0,0.4-0.1,0.7l-0.1,0.1h-0.2h-0.1c-0.3,0-0.5-0.1-0.8-0.1
	c-0.5,0-1,0.1-1.4,0.5c-0.3,0.3-0.4,0.7-0.4,1.1c0,0.7,0.3,1.4,0.6,2l0.1,0.3l-0.1,0.2V85l0.2,0.1l-0.2-0.2l0,0l0.2,0.1l-0.2-0.2
	c-0.1,0.2-0.1,0.5,0.1,0.7c0.2,0.2,0.5,0.2,0.7,0.1l-0.1-0.2l0.1,0.2l0,0l-0.1-0.2l0.1,0.2c0.2-0.1,0.4-0.1,0.6-0.1
	c0.2,0,0.4,0,0.6,0.1l0,0c0.4,0.1,0.8,0.2,1.1,0.2c0.4,0,0.9-0.1,1.3-0.3c0.2-0.1,0.4-0.3,0.5-0.5c0.1-0.2,0.2-0.5,0.2-0.7
	c-0.1-0.5-0.3-1.1-0.6-1.5c-0.1-0.1-0.1-0.2-0.2-0.3l0,0l0.2-0.1l0.4-0.1l-0.1-0.5v0.5h0.2v-0.6l-0.1,0.6c0.3,0,0.5,0.1,0.7,0.1
	l0.2,0.1l0,0c0,0.1,0,0.2-0.1,0.2c-0.3,0.4-0.4,0.9-0.5,1.4c0,0.5,0.3,1,0.8,1.3c0.4,0.2,0.9,0.4,1.4,0.4c0.4,0,0.8-0.1,1.1-0.2l0,0
	c0.1-0.1,0.3-0.1,0.5-0.1l0.2,0.1l0,0l0.2-0.2l-0.2,0.1l0,0l0.2-0.2l-0.2,0.1c0.1,0.1,0.2,0.2,0.4,0.2c0.1,0,0.3,0,0.4-0.1
	c0.1-0.1,0.2-0.2,0.2-0.4c0-0.1,0-0.3-0.1-0.4l-0.2,0.2l0.3-0.1l0,0l-0.2,0.2l0.3-0.1l0,0V85c0-0.2,0.1-0.4,0.2-0.5
	c0.4-0.5,0.6-1.2,0.6-1.8c0-0.9-0.7-1.6-1.5-1.6c-0.1,0-0.2,0-0.3,0c-0.3,0-0.7,0-1,0.1h-0.2h-0.1l-0.1-0.2c0-0.1,0-0.3,0-0.4
	c0-0.2,0-0.3,0-0.5l0,0l0.2-0.4l0.1-0.1l0,0h0.1l0.2,0.2c0.4,0.6,1,0.9,1.8,1c0.4,0,0.7-0.1,1-0.4c0.4-0.3,0.6-0.7,0.8-1.1
	c0.2-0.4,0.2-0.8,0.2-1.2V78c0-0.2,0-0.4,0.1-0.6l0,0l0,0l0-0.4l0.1,0.3l0,0L238,77l0.1,0.3c0.3-0.1,0.4-0.4,0.4-0.7c0,0,0,0,0,0
	c-0.1-0.3-0.4-0.5-0.7-0.4c0,0,0,0,0,0l0.1,0.2v-0.3l0,0l0.1,0.2v-0.3l0,0c-0.1,0-0.2,0-0.5-0.4l0,0c-0.2-0.3-0.5-0.6-0.9-0.9
	c-0.4-0.3-0.9-0.4-1.4-0.5c-0.5,0-0.9,0.2-1.2,0.5c-0.3,0.4-0.5,1-0.6,1.5c0,0.2-0.1,0.3-0.1,0.3h-0.2c-0.3,0-0.5-0.1-0.7-0.2
	l-0.1,0.1l0.1-0.1l0,0l-0.1,0.1l0.1-0.1c-0.1-0.1-0.2-0.2-0.4-0.4c-0.1-0.1-0.2-0.3-0.2-0.5l0,0l0.2-0.1c0.5-0.1,0.9-0.4,1.2-0.7
	c0.3-0.3,0.5-0.7,0.5-1.1c0-0.5-0.3-1.1-0.7-1.4c-0.3-0.3-0.8-0.6-1.2-0.7c-0.2-0.1-0.4-0.2-0.5-0.3v-0.1h-0.5h0.5l0,0h-0.5h0.5
	h-0.6h-0.6h0.3l-0.3-0.1v0h0.3l-0.3-0.1l0,0c0,0-0.1,0.2-0.6,0.3l0,0c-0.5,0.1-1,0.3-1.3,0.7c-0.5,0.3-0.8,0.9-0.8,1.4
	c0,0.4,0.2,0.7,0.4,1c0.3,0.3,0.7,0.6,1.1,0.8c0.1,0,0.2,0.1,0.2,0.2l0,0l0,0l0,0l0,0l0,0l0,0v0.1l-0.2,0.3l-0.3,0.3l-0.1,0.1
	l-0.1,0.1l0.4,0.3l-0.3-0.5l0.3,0.5l0.4,0.3l0.1-0.1l-0.4-0.3l0.4,0.4c0.2-0.1,0.4-0.3,0.5-0.5c0.3-0.3,0.4-0.6,0.5-1
	c0-0.2-0.1-0.5-0.2-0.7c-0.2-0.2-0.4-0.4-0.6-0.5c-0.3-0.1-0.5-0.3-0.7-0.5c-0.1-0.1-0.1-0.2-0.1-0.3c0-0.3,0.2-0.5,0.4-0.6
	c0.3-0.2,0.5-0.3,0.9-0.4c0.5-0.1,0.9-0.3,1.2-0.7c0.1-0.2,0.2-0.4,0.2-0.6c0-0.3-0.2-0.6-0.5-0.6c-0.3,0-0.6,0.2-0.6,0.5l0,0
	c0,0.2,0.1,0.5,0.2,0.7c0.3,0.4,0.7,0.7,1.1,0.8c0.3,0.1,0.6,0.3,0.8,0.5c0.2,0.2,0.3,0.4,0.4,0.6l-0.1,0.3
	c-0.2,0.2-0.5,0.4-0.8,0.5c-0.3,0.1-0.5,0.2-0.7,0.5c-0.2,0.2-0.3,0.5-0.2,0.7c0,0.4,0.1,0.9,0.3,1.2c0.1,0.1,0.2,0.3,0.4,0.4
	l0.4,0.3c0.4,0.2,0.8,0.3,1.3,0.3c0.3,0,0.7-0.1,0.9-0.3c0.3-0.3,0.5-0.6,0.5-1c0-0.4,0.1-0.7,0.3-1c0.1-0.1,0.2-0.2,0.3-0.2
	c0.3,0,0.5,0.1,0.7,0.3c0.2,0.1,0.4,0.3,0.6,0.6l0,0c0.3,0.5,0.9,0.9,1.5,0.9c0.1,0,0.2,0,0.3,0c0.1,0,0.3-0.1,0.3-0.3
	c0.1-0.1,0.1-0.3,0-0.4l-0.3-0.3h-0.4c-0.2,0.1-0.4,0.2-0.6,0.4c-0.3,0.4-0.4,0.8-0.4,1.3V78c0,0.4-0.1,0.8-0.3,1.1
	c-0.1,0.2-0.2,0.3-0.3,0.4l-0.3,0.1c-0.1,0-0.4-0.1-0.9-0.6c-0.3-0.4-0.7-0.6-1.1-0.6c-0.2,0-0.5,0.1-0.7,0.2
	c-0.2,0.2-0.4,0.4-0.6,0.6c-0.1,0.2-0.2,0.4-0.2,0.6c0,0.2,0,0.4,0,0.6c0,0.3,0.1,0.7,0.2,1c0.1,0.2,0.3,0.4,0.4,0.5
	c0.2,0.1,0.5,0.2,0.7,0.2c0.2,0,0.3,0,0.4-0.1c0.2-0.1,0.5-0.1,0.7-0.1c0.4,0,0.5,0.1,0.5,0.2c0.1,0.1,0.1,0.3,0.1,0.4
	c0,0.4-0.2,0.8-0.4,1.2c-0.3,0.3-0.5,0.8-0.5,1.2c0,0.3,0.1,0.5,0.2,0.7c0.2,0.2,0.5,0.3,0.8,0.1c0.2-0.2,0.3-0.5,0.1-0.8
	c0,0,0,0,0,0c-0.3-0.3-0.7-0.5-1.1-0.5c-0.3,0-0.6,0.1-0.9,0.2c-0.2,0.1-0.5,0.1-0.7,0.1c-0.3,0-0.5,0-0.8-0.2
	c-0.1-0.1-0.2-0.2-0.2-0.4c0-0.3,0.2-0.6,0.3-0.9c0.1-0.2,0.2-0.5,0.2-0.8c0-0.3-0.1-0.6-0.4-0.8c-0.3-0.2-0.6-0.4-0.9-0.4
	c-0.3-0.1-0.6-0.1-0.6-0.1h-0.4c-0.3,0-0.5,0.1-0.8,0.2c-0.2,0.1-0.4,0.2-0.5,0.4c-0.2,0.2-0.3,0.4-0.2,0.7c0,0.3,0.1,0.7,0.3,0.9
	c0.2,0.3,0.3,0.6,0.4,0.9v0.1c-0.1,0.1-0.2,0.1-0.3,0.2c-0.2,0.1-0.4,0.1-0.6,0.1c-0.3,0-0.5,0-0.8-0.1c-0.3-0.1-0.7-0.2-1-0.2
	c-0.4,0-0.8,0.1-1.1,0.2l0.3,0.5l0.5,0.3c0.2-0.3,0.2-0.5,0.2-0.8c0-0.3-0.1-0.6-0.2-0.8l0,0c-0.3-0.4-0.4-0.9-0.5-1.4
	c0-0.2,0.1-0.3,0.1-0.3s0.2-0.1,0.6-0.1c0.2,0,0.4,0,0.6,0h0.3c0.3,0,0.6-0.1,0.8-0.2c0.3-0.2,0.5-0.5,0.6-0.8
	c0.1-0.3,0.1-0.6,0.1-0.9c0-0.2,0-0.4-0.1-0.6l-0.1-0.3l-0.1-0.2c-0.1-0.2-0.3-0.4-0.5-0.7c-0.1-0.2-0.3-0.3-0.4-0.4
	c-0.2-0.1-0.5-0.2-0.7-0.2c-0.4,0-0.8,0.2-1.1,0.6c-0.5,0.6-0.8,0.7-0.9,0.7l-0.3-0.1c-0.2-0.2-0.4-0.4-0.4-0.6
	c-0.1-0.2-0.2-0.5-0.2-0.7c0-0.5-0.2-0.9-0.5-1.3c-0.2-0.2-0.4-0.3-0.6-0.3c-0.3-0.1-0.6,0.1-0.7,0.4c0,0.1,0,0.3,0.1,0.4
	c0.1,0.1,0.2,0.2,0.4,0.2h0.2c0.3,0,0.5-0.1,0.7-0.2c0.3-0.2,0.6-0.5,0.8-0.8c0.2-0.2,0.3-0.4,0.6-0.6c0.2-0.2,0.4-0.3,0.7-0.3
	l0.3,0.2c0.2,0.3,0.3,0.6,0.4,0.9c0,0.4,0.2,0.7,0.5,1c0.2,0.2,0.5,0.4,0.9,0.3c0.4,0,0.7-0.1,1-0.3l0.1-0.1L228.6,76.9z"/>
<path class="st1" d="M186.4,76.3c-0.3,0.2-1.2,0.6-1.5-0.7c-0.5-2.6-2.5-1.2-3-0.3s-1.1,0.8-1.1,0.8s0.6,0.1,0.7,1.1s1.2,3.2,2.8,1
	c0.8-1.1,1.6,0.3,1.8,0.6l0.1,0.3c0.1,0.4,0.2,2.1-1.2,1.8c-2.7-0.5-1.9,1.8-1.3,2.6c0.2,0.3,0.2,0.8,0,1.1c0.5-0.2,1.1-0.2,1.6,0
	c1,0.3,3.5,0.2,2-2c-0.8-1.1,0.5-1.3,0.8-1.4h0.2c0.4,0.1,2,0.2,1.3,1.3c-1.4,2.3,1.1,2.5,2.1,2.1s1.4,0.1,1.4,0.1s-0.4-0.5,0.2-1.3
	s1.2-3.2-1.5-2.5c-1.3,0.3-1.1-1.3-1.1-1.7s0.7-1.6,1.6-0.6c1.8,2.1,2.8-0.4,2.8-1.4s0.6-1.2,0.6-1.2s-0.6,0.2-1.2-0.7
	s-2.7-2.2-3,0.5c-0.1,1.3-1.5,0.8-1.8,0.6s-1.6-1.5-0.3-2c2.6-0.9,0.8-2.6-0.2-2.9c-1-0.3-1-0.9-1-0.9s0,0.6-1,0.8s-3,1.7-0.5,2.9
	c1.2,0.6,0.1,1.5-0.2,1.7L186.4,76.3z"/>
<path class="st2" d="M188.4,79.8c0.7,0,1.3-0.6,1.4-1.3c0-0.7-0.6-1.3-1.3-1.3c-0.7,0-1.3,0.6-1.3,1.3
	C187.3,79.2,187.8,79.8,188.4,79.8"/>
<path class="st2" d="M188.4,79.8v0.1h0.1c0.8,0,1.4-0.6,1.4-1.4v-0.1c0-0.8-0.6-1.4-1.3-1.4h-0.1c-0.8,0-1.4,0.6-1.4,1.4v0.1
	c0,0.8,0.5,1.4,1.3,1.5L188.4,79.8L188.4,79.8c-0.6-0.1-1.1-0.7-1.1-1.3v-0.1c0-0.6,0.5-1.2,1.2-1.2h0.1c0.6,0,1.1,0.6,1.1,1.2v0.1
	C189.7,79.2,189.1,79.7,188.4,79.8L188.4,79.8L188.4,79.8z"/>
<path class="st2" d="M188.2,73.9c0.5,0,0.9-0.3,0.9-0.8c0-0.5-0.3-0.9-0.8-0.9l0,0c-0.5,0-0.9,0.3-0.9,0.8
	C187.4,73.5,187.7,73.8,188.2,73.9"/>
<path class="st2" d="M188.2,73.9V74h0.1c0.5,0,1-0.4,1-0.9V73c0-0.5-0.4-0.9-0.9-0.9h-0.1c-0.5,0-0.9,0.4-1,0.9l0,0
	C187.3,73.5,187.7,73.9,188.2,73.9v-0.1c-0.4,0-0.7-0.3-0.7-0.7l0,0c0-0.4,0.4-0.7,0.8-0.7l0,0c0.4,0,0.7,0.3,0.8,0.7l0,0
	c0,0.4-0.4,0.7-0.8,0.7l0,0L188.2,73.9z"/>
<path class="st2" d="M183.2,77.7c0.5,0,0.9-0.3,0.9-0.8c0-0.5-0.3-0.9-0.8-0.9c-0.5,0-0.8,0.3-0.9,0.8
	C182.4,77.2,182.7,77.6,183.2,77.7C183.2,77.7,183.2,77.7,183.2,77.7"/>
<path class="st2" d="M183.2,77.7v0.1h0.1c0.5,0,0.9-0.4,1-0.9l0,0c0-0.5-0.4-1-0.9-1l0,0c-0.5,0-1,0.4-1,0.9l0,0c0,0.5,0.4,1,0.9,1
	L183.2,77.7c-0.3-0.1-0.6-0.4-0.6-0.8l0,0c0-0.4,0.4-0.7,0.8-0.7l0,0l0,0c0.4,0,0.7,0.3,0.7,0.7l0,0C184,77.3,183.7,77.6,183.2,77.7
	L183.2,77.7L183.2,77.7z"/>
<path class="st2" d="M193.5,77.9c0.5,0,0.8-0.4,0.8-0.8c0-0.5-0.4-0.8-0.8-0.8c-0.4,0-0.8,0.3-0.8,0.8
	C192.7,77.5,193.1,77.9,193.5,77.9C193.5,77.9,193.5,77.9,193.5,77.9"/>
<path class="st2" d="M193.5,77.9L193.5,77.9L193.5,77.9c0.6,0.1,1-0.3,1.1-0.8V77c0-0.5-0.4-0.9-0.9-0.9l0,0c-0.5,0-0.9,0.4-1,0.9
	l0,0C192.6,77.5,193,78,193.5,77.9l0-0.1c-0.4,0-0.7-0.3-0.7-0.7l0,0c0-0.4,0.4-0.7,0.8-0.7l0,0c0.4,0,0.7,0.3,0.7,0.7v0.1
	c0,0.4-0.4,0.7-0.8,0.7l0,0L193.5,77.9z"/>
<path class="st2" d="M191.5,84c0.5,0,0.9-0.3,0.9-0.8c0,0,0,0,0,0c0-0.5-0.3-0.9-0.8-0.9c0,0,0,0,0,0c-0.5-0.1-0.9,0.2-1,0.7
	s0.2,0.9,0.7,1C191.4,84,191.4,84,191.5,84"/>
<path class="st2" d="M191.5,84v0.1h0.1c0.5,0,0.9-0.4,1-0.9l0,0c0-0.5-0.4-1-0.9-1h-0.1c-0.5,0-1,0.4-1,0.9l0,0
	C190.6,83.6,191,84,191.5,84L191.5,84v-0.1c-0.4,0-0.7-0.3-0.7-0.7l0,0c0-0.4,0.4-0.7,0.8-0.7l0,0c0.4,0,0.7,0.3,0.7,0.7l0,0
	c0,0.4-0.4,0.7-0.8,0.7l0,0V84z"/>
<path class="st2" d="M185.2,83.7c0.5,0,0.8-0.4,0.9-0.8s-0.4-0.8-0.8-0.9c-0.5,0-0.8,0.3-0.9,0.8C184.3,83.3,184.7,83.6,185.2,83.7
	C185.2,83.7,185.2,83.7,185.2,83.7"/>
<path class="st2" d="M185.2,83.7v0.1h0.1c0.5,0,0.9-0.4,1-0.9v-0.1c0-0.5-0.4-1-0.9-1h-0.1c-0.5,0-0.9,0.4-1,0.9l0,0
	C184.3,83.3,184.7,83.7,185.2,83.7l0-0.2c-0.4,0-0.7-0.3-0.7-0.7l0,0c0-0.4,0.4-0.7,0.8-0.7l0,0c0.4,0,0.7,0.3,0.7,0.7l0,0
	c0,0.4-0.4,0.7-0.7,0.7l0,0L185.2,83.7z"/>
<path class="st1" d="M188.3,73.5c0.4,0,0.8-0.3,0.8-0.7c0-0.4-0.3-0.8-0.7-0.8c-0.4,0-0.8,0.3-0.8,0.7
	C187.5,73.1,187.8,73.4,188.3,73.5C188.3,73.5,188.3,73.5,188.3,73.5"/>
<path class="st1" d="M188.3,73.5v0.1h0.1c0.5,0,0.9-0.4,0.9-0.8l0,0c0-0.5-0.4-0.9-0.8-0.9c0,0,0,0,0,0l0,0c-0.5,0-0.9,0.3-0.9,0.8
	l0,0v0.1c0,0.5,0.4,0.8,0.8,0.9L188.3,73.5c-0.3-0.1-0.6-0.4-0.6-0.7l0,0l0,0c0-0.3,0.3-0.6,0.7-0.6l0,0c0.4,0,0.6,0.3,0.6,0.7l0,0
	C188.9,73.1,188.7,73.4,188.3,73.5L188.3,73.5L188.3,73.5z"/>
<path class="st1" d="M183.2,77.1c0.4,0,0.8-0.3,0.8-0.7s-0.3-0.8-0.7-0.8c-0.4,0-0.7,0.3-0.8,0.7C182.4,76.8,182.8,77.1,183.2,77.1"
	/>
<path class="st1" d="M183.2,77.1v0.1l0,0c0.5,0,0.9-0.4,0.9-0.8l0,0l0,0c0-0.5-0.4-0.8-0.8-0.9h-0.1c-0.5,0-0.9,0.4-0.9,0.8v0.1
	c0,0.5,0.4,0.8,0.9,0.9V77c-0.3,0-0.6-0.3-0.6-0.6l0,0c0-0.3,0.3-0.6,0.7-0.6l0,0c0.3,0,0.6,0.3,0.6,0.6l0,0c0,0.3-0.3,0.6-0.7,0.6
	l0,0L183.2,77.1z"/>
<path class="st1" d="M193.5,77.4c0.4,0,0.8-0.3,0.8-0.7c0-0.4-0.3-0.8-0.7-0.8s-0.8,0.3-0.8,0.7C192.8,77,193.1,77.4,193.5,77.4"/>
<path class="st1" d="M193.5,77.4v0.1h0.1c0.5,0,0.9-0.4,0.9-0.8l0,0c0-0.5-0.4-0.8-0.9-0.9l0,0c-0.5,0-0.9,0.3-0.9,0.8l0,0
	C192.7,77.1,193.1,77.5,193.5,77.4l0-0.1c-0.3,0-0.6-0.3-0.6-0.6l0,0c0-0.4,0.3-0.6,0.7-0.6l0,0c0.3,0,0.6,0.3,0.6,0.6l0,0
	c0,0.3-0.3,0.6-0.7,0.6l0,0L193.5,77.4z"/>
<path class="st1" d="M191.5,83.5c0.4,0,0.8-0.3,0.8-0.7c0,0,0,0,0,0c0-0.4-0.3-0.8-0.7-0.8c-0.4,0-0.8,0.3-0.8,0.7
	C190.7,83.1,191,83.5,191.5,83.5C191.4,83.5,191.5,83.5,191.5,83.5"/>
<path class="st1" d="M191.5,83.5v0.1l0,0c0.5,0,0.9-0.4,0.9-0.8l0,0c0-0.5-0.4-0.9-0.9-0.9h-0.1c-0.5,0-0.9,0.4-0.9,0.8v0.1
	c0,0.5,0.4,0.8,0.9,0.9l0,0L191.5,83.5c-0.4-0.1-0.7-0.4-0.7-0.7l0,0c0-0.3,0.3-0.6,0.6-0.6l0,0c0.3,0,0.6,0.3,0.6,0.7l0,0
	C192,83.2,191.7,83.5,191.5,83.5L191.5,83.5L191.5,83.5z"/>
<path class="st1" d="M185.2,83.3c0.4,0,0.8-0.3,0.8-0.7c0-0.4-0.3-0.8-0.7-0.8s-0.8,0.3-0.8,0.7C184.4,82.9,184.7,83.2,185.2,83.3
	C185.2,83.3,185.2,83.3,185.2,83.3"/>
<path class="st1" d="M185.2,83.3v0.1l0,0c0.5,0,0.9-0.4,0.9-0.8l0,0c0-0.5-0.4-0.8-0.8-0.9l0,0c-0.5,0-0.9,0.3-0.9,0.8l0,0
	c0,0.5,0.4,0.8,0.9,0.9l0,0v-0.2c-0.4,0-0.6-0.3-0.6-0.6l0,0c0-0.4,0.3-0.6,0.7-0.6l0,0c0.3,0,0.6,0.3,0.6,0.6l0,0
	c0,0.3-0.3,0.6-0.7,0.6l0,0V83.3z"/>
<path class="st1" d="M188.5,79.2c0.7,0,1.3-0.5,1.3-1.1c0.1-0.7-0.4-1.3-1.1-1.3c-0.7-0.1-1.3,0.4-1.3,1.1
	C187.3,78.6,187.8,79.2,188.5,79.2C188.5,79.2,188.5,79.2,188.5,79.2"/>
<path class="st1" d="M188.5,79.2v0.1h0.1c0.7,0,1.3-0.5,1.4-1.2V78c0-0.7-0.6-1.3-1.3-1.3h-0.1c-0.7,0-1.3,0.6-1.3,1.3l0,0
	C187.2,78.7,187.8,79.3,188.5,79.2v-0.1c-0.6,0-1.1-0.5-1.1-1.1l0,0c0.1-0.6,0.5-1,1.1-1h0.1c0.6,0,1,0.4,1.1,1l0,0
	c-0.1,0.6-0.5,1-1.1,1h-0.1L188.5,79.2z"/>
<path class="st3" d="M209.5,83.4l0.1,20c0,0,2.3,0.3,9-4.9s6.3-4.1,6.3-4.1l0.4-0.3L209.5,83.4z"/>
<path class="st1" d="M207.7,91.1c-0.3,0.2-1.2,0.7-1.5-0.7c-0.5-2.6-2.5-1.2-3-0.3s-1.1,0.7-1.1,0.7s0.6,0.1,0.7,1.1s1.2,3.2,2.8,1
	c0.8-1.1,1.6,0.3,1.8,0.6l0.1,0.3c0.1,0.4,0.2,2.1-1.2,1.8c-2.7-0.5-1.9,1.8-1.3,2.6c0.2,0.3,0.2,0.8,0,1.1c0.5-0.2,1.1-0.2,1.6,0
	c1,0.3,3.5,0.2,1.9-2c-0.8-1.1,0.5-1.3,0.9-1.4h0.2c0.4,0.1,2,0.2,1.3,1.3c-1.4,2.3,1.1,2.5,2.1,2.1s1.4,0.1,1.4,0.1
	s-0.4-0.5,0.3-1.3s1.2-3.2-1.5-2.5c-1.3,0.3-1.1-1.3-1.1-1.7s0.7-1.6,1.6-0.6c1.8,2,2.8-0.4,2.8-1.4S217,91,217,91s-0.6,0.2-1.2-0.7
	s-2.7-2.2-3,0.5c-0.1,1.3-1.5,0.8-1.8,0.6s-1.6-1.5-0.3-2c2.6-0.9,0.8-2.6-0.2-2.9s-1-0.9-1-0.9s0,0.6-1,0.8s-3,1.7-0.5,2.9
	C209.2,89.9,208,90.8,207.7,91.1L207.7,91.1z"/>
<path class="st2" d="M204.5,92.4c0.5,0,0.9-0.3,0.9-0.8c0,0,0,0,0,0c0-0.5-0.3-0.9-0.8-0.9c-0.5,0-0.9,0.3-0.9,0.8
	C203.6,92,204,92.4,204.5,92.4C204.5,92.4,204.5,92.4,204.5,92.4"/>
<path class="st2" d="M204.5,92.4v0.1h0.1c0.5,0,0.9-0.4,1-0.9v-0.1c0-0.5-0.4-0.9-0.9-0.9h-0.1c-0.5,0-1,0.4-1,0.9l0,0
	c0,0.5,0.4,1,0.9,1v-0.2c-0.4,0-0.7-0.3-0.7-0.7l0,0c0-0.4,0.4-0.7,0.8-0.7l0,0c0.4,0,0.7,0.3,0.7,0.7v0.1
	C205.2,92.1,204.9,92.4,204.5,92.4L204.5,92.4L204.5,92.4z"/>
<path class="st3" d="M214.8,92.7c0.5,0,0.9-0.3,0.9-0.8c0,0,0,0,0,0c0-0.5-0.3-0.9-0.8-0.9c-0.5,0-0.9,0.3-0.9,0.8
	C214,92.3,214.3,92.7,214.8,92.7C214.8,92.7,214.8,92.7,214.8,92.7"/>
<path class="st3" d="M214.8,92.7v0.1h0.1c0.5,0,1-0.4,1-0.9h-0.1h0.1v-0.1c0-0.5-0.4-1-0.9-1l0,0c-0.5,0-0.9,0.4-1,0.9l0,0
	C213.9,92.3,214.3,92.7,214.8,92.7l0-0.2c-0.4,0-0.7-0.3-0.7-0.7l0,0c0-0.4,0.4-0.7,0.8-0.7l0,0l0,0c0.4,0,0.7,0.3,0.7,0.7l0,0l0,0
	c0,0.4-0.3,0.7-0.7,0.7l0,0L214.8,92.7z"/>
<path class="st3" d="M212.8,98.8c0.5,0,0.9-0.3,0.9-0.8c0-0.5-0.4-0.9-0.8-0.9c-0.5,0-0.9,0.3-0.9,0.8
	C212,98.3,212.3,98.7,212.8,98.8"/>
<path class="st3" d="M212.8,98.8v0.1h0.1c0.5,0,0.9-0.4,1-0.9l0,0c0-0.5-0.4-1-0.9-1l0,0c-0.5,0-0.9,0.4-1,0.9v0.1
	c0,0.5,0.4,0.9,0.9,0.9v-0.2c-0.4,0-0.7-0.3-0.7-0.7l0,0c0-0.4,0.4-0.7,0.8-0.7l0,0c0.4,0,0.7,0.3,0.7,0.7l0,0l0,0
	C213.6,98.4,213.2,98.7,212.8,98.8L212.8,98.8L212.8,98.8z"/>
<path class="st2" d="M206.5,98.4c0.5,0,0.9-0.3,0.9-0.8c0-0.5-0.3-0.9-0.8-0.9l0,0c-0.5,0-0.9,0.3-0.9,0.8
	C205.7,98,206,98.4,206.5,98.4L206.5,98.4"/>
<path class="st2" d="M206.5,98.4v0.1h0.1c0.5,0,0.9-0.4,1-0.9l0,0c0-0.5-0.4-1-0.9-1h-0.1c-0.5,0-0.9,0.4-1,0.9v0.1
	c0,0.5,0.4,0.9,0.9,0.9v-0.2c-0.4,0-0.7-0.3-0.7-0.7l0,0c0-0.4,0.4-0.7,0.8-0.7l0,0c0.4,0,0.7,0.3,0.7,0.7l0,0l0,0
	C207.2,98,206.9,98.4,206.5,98.4L206.5,98.4L206.5,98.4z"/>
<path class="st1" d="M204.5,91.9c0.4,0.1,0.8-0.2,0.9-0.6c0.1-0.4-0.2-0.8-0.6-0.9c-0.1,0-0.1,0-0.2,0c-0.4-0.1-0.8,0.2-0.9,0.6
	c-0.1,0.4,0.2,0.8,0.6,0.9C204.4,91.9,204.4,91.9,204.5,91.9"/>
<path class="st1" d="M204.5,91.9L204.5,91.9L204.5,91.9c0.5,0.1,0.9-0.2,0.9-0.7l0,0c0-0.5-0.4-0.8-0.9-0.9l0,0h-0.1
	c-0.5,0-0.9,0.3-0.9,0.8v0.1c0,0.5,0.4,0.8,0.9,0.9L204.5,91.9c-0.4-0.1-0.7-0.4-0.7-0.7l0,0c0-0.3,0.3-0.6,0.7-0.6l0,0
	c0.3,0,0.6,0.3,0.6,0.6l0,0l0,0C205.1,91.6,204.8,91.8,204.5,91.9L204.5,91.9L204.5,91.9z"/>
<path class="st1" d="M214.8,92.2c0.4,0,0.8-0.3,0.8-0.7s-0.3-0.8-0.7-0.8l0,0c-0.4,0-0.8,0.3-0.8,0.7c0,0,0,0,0,0
	C214.1,91.8,214.4,92.1,214.8,92.2C214.8,92.1,214.8,92.1,214.8,92.2"/>
<path class="st1" d="M214.8,92.2v0.1l0,0c0.5,0,0.9-0.4,0.9-0.8l0,0c0-0.5-0.4-0.9-0.9-0.9l0,0c-0.5,0-0.9,0.4-0.9,0.8l0,0
	c0,0.5,0.4,0.8,0.9,0.9L214.8,92.2L214.8,92.2c-0.4-0.1-0.6-0.4-0.6-0.7l0,0c0-0.3,0.3-0.6,0.7-0.6l0,0c0.3,0,0.6,0.3,0.6,0.7l0,0
	l0,0C215.4,91.8,215.2,92.1,214.8,92.2L214.8,92.2L214.8,92.2z"/>
<path class="st1" d="M212.8,98.3c0.4,0,0.8-0.3,0.8-0.7c0,0,0,0,0,0c0-0.4-0.3-0.8-0.7-0.8c0,0,0,0,0,0c-0.4-0.1-0.8,0.2-0.9,0.6
	c-0.1,0.4,0.2,0.8,0.6,0.9C212.7,98.3,212.7,98.3,212.8,98.3"/>
<path class="st1" d="M212.8,98.3v0.1l0,0c0.5,0,0.9-0.4,0.9-0.8l0,0c0-0.5-0.4-0.9-0.9-0.9l0,0c-0.5,0-0.9,0.4-0.9,0.8l0,0
	c0,0.5,0.4,0.8,0.9,0.9l0,0v-0.2c-0.3,0-0.6-0.3-0.6-0.6l0,0c0-0.4,0.3-0.6,0.7-0.6l0,0c0.4,0,0.6,0.3,0.6,0.7l0,0
	C213.4,97.9,213.1,98.2,212.8,98.3L212.8,98.3L212.8,98.3z"/>
<path class="st1" d="M206.5,98c0.4,0,0.8-0.3,0.8-0.7c0-0.4-0.3-0.8-0.7-0.8c-0.4,0-0.8,0.3-0.8,0.7C205.7,97.6,206.1,98,206.5,98"
	/>
<path class="st1" d="M206.5,98v0.1l0,0c0.5,0,0.9-0.4,0.9-0.8v-0.1c0-0.5-0.4-0.8-0.8-0.9h-0.1c-0.5,0-0.9,0.4-0.9,0.8l0,0
	C205.6,97.7,206,98,206.5,98l0-0.2c-0.3,0-0.6-0.3-0.6-0.7l0,0c0-0.3,0.3-0.6,0.6-0.6l0,0c0.3,0,0.6,0.3,0.6,0.6l0,0
	c0,0.3-0.3,0.6-0.7,0.6l0,0L206.5,98z"/>
<path class="st1" d="M209.8,94v0.1h0.1c0.7,0,1.3-0.5,1.3-1.2v-0.1c0-0.7-0.6-1.3-1.3-1.3h-0.1c-0.7,0-1.3,0.5-1.4,1.2v0.1
	c0,0.7,0.6,1.3,1.3,1.3v-0.2c-0.6,0-1.1-0.5-1.1-1.1l0,0c0.1-0.6,0.5-1,1.1-1l0,0c0.6,0,1.1,0.4,1.2,1v0.1c-0.1,0.6-0.5,1-1.1,1
	h-0.1L209.8,94z"/>
<path class="st3" d="M235.6,64.7l-21.3,14.7l16,11.1c0,0,9.7-5.4,9.9-8.9S236.7,66,235.6,64.7"/>
<path class="st1" d="M228.6,76.9c-0.3,0.2-1.2,0.7-1.5-0.7c-0.5-2.6-2.5-1.2-3-0.3s-1.1,0.8-1.1,0.8s0.6,0.1,0.7,1.1s1.2,3.2,2.8,1
	c0.8-1.1,1.6,0.3,1.8,0.6l0.1,0.3c0.1,0.4,0.2,2.1-1.2,1.8c-2.7-0.5-1.9,1.8-1.3,2.6c0.2,0.3,0.2,0.8,0,1.1c0.5-0.2,1.1-0.2,1.7,0
	c1,0.3,3.5,0.2,2-2c-0.8-1.1,0.5-1.3,0.8-1.4h0.2c0.4,0,2,0.2,1.3,1.3c-1.4,2.3,1.1,2.5,2.1,2.1s1.4,0.1,1.4,0.1s-0.4-0.5,0.2-1.3
	s1.1-3.1-1.5-2.5c-1.3,0.3-1.1-1.3-1.1-1.7s0.7-1.6,1.6-0.6c1.8,2,2.8-0.4,2.8-1.4s0.6-1.2,0.6-1.2s-0.6,0.2-1.2-0.7s-2.7-2.2-3,0.5
	c-0.1,1.3-1.5,0.8-1.8,0.6s-1.6-1.5-0.3-2c2.6-0.9,0.8-2.6-0.2-2.9s-0.9-0.9-0.9-0.9s0,0.6-1,0.8s-3,1.7-0.5,2.9
	c1.2,0.6,0.1,1.5-0.2,1.7L228.6,76.9z"/>
<path class="st3" d="M230.6,80.4c0.8,0,1.4-0.5,1.4-1.3c0-0.8-0.5-1.4-1.3-1.4l0,0c-0.8,0-1.3,0.7-1.3,1.5
	C229.5,79.7,230,80.3,230.6,80.4"/>
<path class="st3" d="M230.6,80.4L230.6,80.4L230.6,80.4c0.8,0.1,1.5-0.5,1.5-1.3V79c0-0.8-0.6-1.4-1.3-1.5h-0.1
	c-0.8,0-1.4,0.7-1.4,1.4V79C229.3,79.8,229.9,80.4,230.6,80.4L230.6,80.4l0-0.1c-0.6-0.1-1.1-0.6-1.1-1.2l0,0c0-0.6,0.5-1.2,1.2-1.2
	h0.1c0.6,0,1.1,0.6,1.1,1.2v0.1C231.8,79.8,231.3,80.3,230.6,80.4L230.6,80.4L230.6,80.4z"/>
<path class="st3" d="M230.4,74.4c0.5,0.1,0.9-0.2,1-0.7s-0.2-0.9-0.7-1c-0.1,0-0.1,0-0.2,0c-0.5,0-0.9,0.3-0.9,0.8c0,0,0,0,0,0
	C229.5,74,229.9,74.4,230.4,74.4C230.3,74.4,230.3,74.4,230.4,74.4"/>
<path class="st3" d="M230.4,74.4v0.1l0,0c0.5,0,1-0.4,1-0.9l0,0c0-0.5-0.4-1-0.9-1l0,0h-0.1c-0.5,0-0.9,0.4-1,0.9v0.1
	c0,0.5,0.4,1,0.9,1L230.4,74.4c-0.4-0.1-0.8-0.4-0.8-0.8l0,0c0-0.4,0.4-0.7,0.8-0.7l0,0c0.4,0,0.7,0.3,0.7,0.7l0,0
	C231,74.1,230.7,74.4,230.4,74.4L230.4,74.4L230.4,74.4z"/>
<path class="st3" d="M225.3,78.2c0.5,0,0.9-0.3,0.9-0.8c0-0.5-0.3-0.9-0.8-0.9c0,0,0,0,0,0c-0.5,0-0.9,0.3-0.9,0.8
	C224.5,77.8,224.9,78.2,225.3,78.2"/>
<path class="st3" d="M225.3,78.2v0.1l0,0c0.5,0,0.9-0.4,1-0.9l0,0c0-0.5-0.4-1-0.9-1h-0.1c-0.5,0-0.9,0.4-1,0.9v0.1
	c0,0.5,0.4,0.9,0.9,0.9v-0.2c-0.4,0-0.7-0.3-0.7-0.7l0,0c0-0.4,0.4-0.7,0.8-0.7l0,0l0,0c0.4,0,0.7,0.3,0.7,0.7l0,0
	C226,77.8,225.7,78.2,225.3,78.2L225.3,78.2L225.3,78.2z"/>
<path class="st3" d="M235.7,78.5c0.5,0,0.9-0.3,0.9-0.8c0-0.5-0.3-0.9-0.8-0.9l0,0c-0.5,0-0.9,0.3-0.9,0.8c0,0,0,0,0,0
	C234.9,78.1,235.2,78.5,235.7,78.5"/>
<path class="st3" d="M235.7,78.5v0.1l0,0c0.5,0,1-0.4,1-0.9l0,0c0-0.5-0.4-0.9-0.9-0.9h-0.1c-0.5,0-0.9,0.4-1,0.9l0,0
	c0,0.5,0.4,1,0.9,1L235.7,78.5c-0.5-0.1-0.8-0.4-0.8-0.8l0,0c0-0.4,0.4-0.7,0.8-0.7l0,0c0.4,0,0.7,0.3,0.7,0.7l0,0
	C236.3,78.1,236,78.4,235.7,78.5L235.7,78.5L235.7,78.5z"/>
<path class="st3" d="M233.6,84.6c0.5,0,0.9-0.3,0.9-0.8c0,0,0,0,0,0c0-0.5-0.3-0.8-0.8-0.9c0,0,0,0,0,0c-0.5-0.1-0.9,0.2-1,0.7
	s0.2,0.9,0.7,1C233.5,84.6,233.6,84.6,233.6,84.6"/>
<path class="st3" d="M233.6,84.6v0.1h0.1c0.5,0,1-0.4,1-0.9l0,0c0-0.5-0.4-1-0.9-1l0,0c-0.5,0-0.9,0.4-1,0.9v0.1c0,0.5,0.4,1,0.9,1
	l0,0L233.6,84.6c-0.3-0.1-0.6-0.4-0.6-0.8l0,0c0-0.4,0.4-0.7,0.8-0.7l0,0c0.4,0,0.7,0.3,0.7,0.7l0,0
	C234.4,84.2,234.1,84.5,233.6,84.6L233.6,84.6L233.6,84.6z"/>
<path class="st3" d="M227.3,84.2c0.5,0,0.9-0.3,0.9-0.8c0,0,0,0,0,0c0-0.5-0.3-0.9-0.8-0.9c0,0,0,0,0,0c-0.5,0-0.9,0.3-0.9,0.8
	C226.5,83.8,226.9,84.2,227.3,84.2C227.3,84.2,227.3,84.2,227.3,84.2"/>
<path class="st3" d="M227.3,84.2v0.1h0.1c0.5,0,0.9-0.4,1-0.9l0,0c0-0.5-0.4-1-0.9-1h-0.1c-0.5,0-0.9,0.4-1,0.9l0,0
	c0,0.5,0.4,1,0.9,1v-0.2c-0.4,0-0.7-0.3-0.7-0.7l0,0c0-0.4,0.4-0.7,0.8-0.7l0,0c0.4,0,0.7,0.3,0.7,0.7l0,0l0,0
	c0,0.4-0.4,0.7-0.8,0.7l0,0V84.2z"/>
<path class="st1" d="M230.4,74c0.4,0,0.8-0.3,0.8-0.7c0,0,0,0,0,0c0-0.4-0.3-0.8-0.8-0.8c-0.4,0-0.8,0.3-0.8,0.7c0,0,0,0,0,0
	C229.7,73.6,230,74,230.4,74C230.4,74,230.4,74,230.4,74"/>
<path class="st1" d="M230.4,74v0.1l0,0c0.5,0,0.9-0.4,0.9-0.8l0,0c0-0.5-0.4-0.9-0.9-0.9l0,0h-0.1c-0.5,0-0.9,0.4-0.9,0.8l0,0
	c0,0.5,0.4,0.8,0.9,0.9v-0.2c-0.3,0-0.6-0.3-0.6-0.6l0,0c0-0.3,0.3-0.6,0.6-0.6l0,0c0.4,0,0.6,0.3,0.6,0.6c0,0,0,0,0,0l0,0h0.1H231
	C231,73.6,230.7,73.9,230.4,74L230.4,74L230.4,74z"/>
<path class="st1" d="M225.3,77.7c0.4,0,0.8-0.3,0.8-0.7c0-0.4-0.3-0.8-0.7-0.8c0,0,0,0-0.1,0c-0.4-0.1-0.8,0.2-0.9,0.6
	s0.2,0.8,0.6,0.9C225.2,77.7,225.3,77.7,225.3,77.7"/>
<path class="st1" d="M225.3,77.7v0.1l0,0c0.5,0,0.9-0.4,0.9-0.8l0,0l0,0c0-0.5-0.4-0.8-0.8-0.9h-0.1c-0.5,0-0.9,0.4-0.9,0.8l0,0
	c0,0.5,0.4,0.9,0.8,0.9L225.3,77.7c-0.4-0.1-0.7-0.4-0.7-0.8l0,0c0-0.4,0.3-0.6,0.7-0.6l0,0c0.3,0,0.6,0.3,0.6,0.6l0,0l0,0
	c0,0.3-0.3,0.6-0.7,0.6l0,0L225.3,77.7z"/>
<path class="st1" d="M235.7,78c0.4,0.1,0.8-0.2,0.9-0.6c0.1-0.4-0.2-0.8-0.6-0.9c-0.1,0-0.1,0-0.2,0c-0.4-0.1-0.8,0.2-0.9,0.6
	c-0.1,0.4,0.2,0.8,0.6,0.9C235.6,78,235.6,78,235.7,78"/>
<path class="st1" d="M235.7,78v0.1h0.1c0.5,0,0.9-0.4,0.9-0.8l0,0c0-0.5-0.4-0.8-0.9-0.9l0,0c-0.9,0-0.9,1.1-0.9,0.8l0,0
	C234.9,77.7,235.3,78.1,235.7,78l0.1-0.1c-0.3,0-0.6-0.3-0.6-0.6l0,0c0-0.4,0.3-0.6,0.7-0.6l0,0c0.3,0,0.6,0.3,0.6,0.7l0,0
	c0,0.3-0.3,0.6-0.6,0.6l0,0L235.7,78z"/>
<path class="st1" d="M233.6,84.1c0.4,0,0.8-0.3,0.8-0.7c0-0.4-0.3-0.8-0.7-0.8c0,0,0,0,0,0c-0.4,0-0.8,0.3-0.8,0.7
	C232.9,83.7,233.2,84.1,233.6,84.1"/>
<path class="st1" d="M233.6,84.1v0.1l0,0c0.5,0,0.9-0.4,0.9-0.8l0,0c0-0.5-0.4-0.9-0.9-0.9l0,0l0,0c-0.5,0-0.9,0.4-0.9,0.8l0,0
	c0,0.5,0.4,0.8,0.8,0.9l0,0L233.6,84.1c-0.3-0.1-0.6-0.4-0.6-0.7l0,0c0-0.4,0.3-0.6,0.7-0.6l0,0c0.3,0,0.6,0.3,0.6,0.7l0,0
	C234.2,83.7,234,84,233.6,84.1L233.6,84.1L233.6,84.1z"/>
<path class="st1" d="M227.3,83.8c0.4,0,0.8-0.3,0.8-0.7c0,0,0,0,0,0c0-0.4-0.3-0.8-0.7-0.8c0,0,0,0,0,0c-0.4,0-0.8,0.3-0.8,0.7
	C226.6,83.4,226.9,83.8,227.3,83.8"/>
<path class="st1" d="M227.3,83.8L227.3,83.8L227.3,83.8c0.5,0.1,0.9-0.3,0.9-0.7l0,0c0-0.5-0.4-0.8-0.8-0.9l0,0
	c-0.5,0-0.9,0.4-0.9,0.8l0,0C226.5,83.5,226.9,83.9,227.3,83.8l0-0.1c-0.3,0-0.6-0.3-0.6-0.6l0,0c0-0.4,0.3-0.6,0.7-0.6l0,0
	c0.3,0,0.6,0.3,0.6,0.7l0,0c0,0.3-0.3,0.6-0.6,0.6l0,0V83.8z"/>
<path class="st1" d="M230.6,79.8c0.7,0,1.2-0.5,1.2-1.2s-0.5-1.2-1.2-1.2c-0.7,0-1.2,0.5-1.2,1.1C229.5,79.2,230,79.8,230.6,79.8
	C230.6,79.8,230.6,79.8,230.6,79.8"/>
<path class="st1" d="M230.6,79.8v0.1h0.1c0.7,0,1.3-0.5,1.4-1.3v-0.1c0-0.7-0.6-1.3-1.3-1.3h-0.1c-0.7,0-1.3,0.5-1.3,1.2v0.1
	c0,0.7,0.6,1.3,1.3,1.3v-0.2c-0.6,0-1.1-0.5-1.1-1.1l0,0c0.1-0.6,0.5-1,1.1-1h0.1c0.6,0,1.1,0.5,1.1,1.1l0,0c-0.1,0.6-0.5,1-1.1,1
	h-0.1L230.6,79.8z"/>
<path class="st2" d="M217.2,66.8v0.6c1.3,0,2.7-0.1,4-0.5c0.5-0.1,0.9-0.3,1.4-0.6c0.2-0.1,0.3-0.3,0.5-0.5c0.2-0.2,0.2-0.4,0.2-0.7
	c0-0.2-0.1-0.5-0.2-0.7c-0.2-0.3-0.6-0.5-0.9-0.7c-1.6-0.6-3.2-0.8-4.9-0.8c-1.3,0-2.7,0.1-4,0.5c-0.5,0.1-0.9,0.3-1.3,0.6
	c-0.2,0.1-0.3,0.3-0.5,0.4c-0.1,0.2-0.2,0.4-0.2,0.7c0,0.2,0.1,0.5,0.2,0.7c0.2,0.3,0.6,0.5,0.9,0.7c1.6,0.6,3.2,0.8,4.9,0.8v-1.2
	c-1.2,0-2.5-0.1-3.7-0.4c-0.4-0.1-0.7-0.2-1-0.4l-0.2-0.1l-0.1,0.1h0.1v-0.1l-0.1,0.1l0,0l0.2,0v0h-0.2l0.2,0h-0.1h0.1l0,0h-0.1h0.1
	l0.1-0.1c0.5-0.3,1.1-0.5,1.7-0.6c1-0.2,2-0.3,3-0.3c1.2,0,2.5,0.1,3.6,0.4c0.4,0.1,0.7,0.2,1,0.4l0.1,0.1l0,0l0.1-0.1H222v0.1
	l0.1-0.1l0,0l-0.1,0v0.1h0.2l-0.2-0.1h0.1H222l0,0h0.1H222l-0.1,0.1c-0.5,0.3-1.1,0.5-1.7,0.6c-1,0.2-2,0.3-3.1,0.3L217.2,66.8z"/>
<path class="st2" d="M217.2,66.8V67c1.3,0,2.6-0.1,3.9-0.5c0.4-0.1,0.8-0.3,1.2-0.5c0.3-0.2,0.5-0.5,0.5-0.8c0-0.3-0.2-0.6-0.5-0.8
	c-1.6-0.8-3.4-1.1-5.1-1c-1.3,0-2.6,0.1-3.9,0.5c-0.4,0.1-0.8,0.3-1.2,0.5c-0.3,0.2-0.5,0.4-0.5,0.8c0,0.3,0.2,0.6,0.5,0.8
	c1.6,0.7,3.4,1.1,5.1,1v-0.5c-1.3,0-2.5-0.1-3.8-0.4c-0.4-0.1-0.8-0.2-1.1-0.4c-0.2-0.2-0.3-0.3-0.3-0.4c0-0.1,0.1-0.2,0.3-0.4
	c1.5-0.7,3.2-1,4.9-0.9c1.3,0,2.5,0.1,3.8,0.4c0.4,0.1,0.7,0.3,1.1,0.4c0.2,0.2,0.3,0.3,0.3,0.4s-0.1,0.2-0.3,0.4
	c-1.5,0.7-3.2,1-4.8,0.9V66.8z"/>
<rect x="199.8" y="58.2" class="st5" width="9.9" height="18.4"/>
<path class="st3" d="M217.2,66.7V67c1.3,0,2.6-0.1,3.9-0.4c0.4-0.1,0.8-0.3,1.2-0.5c0.4-0.2,0.6-0.7,0.5-1.1
	c-0.1-0.2-0.3-0.4-0.5-0.5c-1.6-0.7-3.4-1.1-5.1-1c-1.3,0-2.6,0.1-3.9,0.5c-0.4,0.1-0.8,0.3-1.2,0.5c-0.4,0.2-0.6,0.7-0.5,1.1
	c0.1,0.2,0.3,0.4,0.5,0.5c1.6,0.7,3.4,1.1,5.1,1v-0.5c-1.3,0-2.5-0.1-3.8-0.4c-0.4-0.1-0.8-0.2-1.1-0.4c-0.2-0.2-0.3-0.3-0.3-0.4
	s0.1-0.2,0.3-0.4c1.5-0.7,3.2-1,4.9-0.9c1.3,0,2.5,0.1,3.8,0.4c0.4,0.1,0.7,0.3,1.1,0.4c0.2,0.2,0.3,0.3,0.3,0.4s-0.1,0.2-0.3,0.4
	c-1.5,0.7-3.2,1-4.8,0.9V66.7z"/>
<rect x="209.7" y="58.5" class="st5" width="10.3" height="16.3"/>
<path class="st6" d="M214.1,71.3c0,0.6-2,1.1-4.5,1.1s-4.5-0.5-4.5-1.1s2-1.1,4.5-1.1S214.1,70.7,214.1,71.3"/>
<path class="st6" d="M213.8,70.1c-2.7-0.9-5.6-0.9-8.4,0c0,0-0.3-0.4,0.6-0.7c1.3-0.3,2.6-0.4,3.9-0.5c1.2,0,2.4,0.2,3.6,0.6
	l0.3,0.2L213.8,70.1z"/>
<path class="st6" d="M209.5,62.4c-1.3,1.2-1.4,4.6-1.4,4.6c-0.5-4.3-3-4.3-3-4.3c0.6,1.6,0.9,3.2,1,4.9c-0.8-3.2-4.3-3.3-4.3-3.3
	c2.9,2.6,2.9,4.9,2.9,4.9c1.5-0.7,3.1-1,4.8-0.9h0.1c1.6-0.1,3.3,0.3,4.8,0.9c0,0,0-2.3,2.9-4.9c0,0-3.5,0.2-4.3,3.3
	c0.1-1.7,0.4-3.3,1-4.9c0,0-2.5,0-3,4.3C211,67,210.9,63.5,209.5,62.4"/>
<path class="st2" d="M217.3,92.8c0.9,0,1.7-0.7,1.8-1.6c0.1-0.9-0.6-1.7-1.5-1.8c0,0,0,0,0,0c-0.9,0-1.7,0.7-1.8,1.6
	C215.7,91.9,216.4,92.7,217.3,92.8C217.3,92.8,217.3,92.8,217.3,92.8"/>
<rect x="207.1" y="90.1" class="st5" width="2.8" height="6.7"/>
<path class="st3" d="M217.2,92.8c0.9,0,1.7-0.7,1.8-1.6c0.1-0.9-0.6-1.7-1.5-1.8c-0.9-0.1-1.7,0.6-1.8,1.5c0,0.1,0,0.1,0,0.2
	C215.6,91.9,216.3,92.7,217.2,92.8C217.2,92.8,217.2,92.8,217.2,92.8"/>
<rect x="209.9" y="90.1" class="st5" width="2.8" height="6.7"/>
<path class="st1" d="M209.7,93.9c0.7,0,1.2-0.5,1.3-1.1c0-0.7-0.5-1.2-1.1-1.3s-1.2,0.5-1.3,1.1C208.6,93.3,209.1,93.8,209.7,93.9
	L209.7,93.9"/>
<path class="st2" d="M217.1,86.4c0.7,0,1.2-0.5,1.2-1.1c0-0.6-0.5-1.2-1.1-1.2c-0.6,0-1.2,0.5-1.2,1.1
	C215.9,85.9,216.4,86.4,217.1,86.4"/>
<rect x="207.6" y="85.9" class="st5" width="2" height="4.7"/>
<path class="st3" d="M217,86.4c0.7,0,1.2-0.5,1.2-1.1c0-0.6-0.5-1.2-1.1-1.2c-0.6,0-1.2,0.5-1.2,1.1C215.9,85.9,216.4,86.4,217,86.4
	"/>
<rect x="209.6" y="85.9" class="st5" width="2" height="4.7"/>
<path class="st1" d="M209.6,88.5c0.5,0,0.9-0.4,0.9-0.9c0-0.5-0.4-0.9-0.9-0.9c-0.5,0-0.9,0.4-0.9,0.8
	C208.7,88.1,209.1,88.5,209.6,88.5C209.6,88.5,209.6,88.5,209.6,88.5"/>
<polygon class="st1" points="209.4,83.8 224.9,94.2 230.9,90.1 215.3,79.8 235.8,65.6 234.5,61.9 229.6,61.8 209.5,75.5 189.4,61.9 
	184.6,61.9 183.4,65.5 203.2,79.6 188.1,90 194,94.1 "/>
<polygon class="st7" points="209.4,83.8 224.9,94.2 230.9,90.1 215.3,79.8 235.8,65.6 234.5,61.9 229.6,61.8 209.5,75.5 189.4,61.9 
	184.6,61.9 183.4,65.5 203.2,79.6 188.1,90 194,94.1 "/>
<path class="st6" d="M184.4,62l3.5-10.9c0,0,0.9-5.4,7.8-5.4h0.4h28.3c0,0,5-0.6,7,5.7l0.1,0.3l3.3,10.3H184.4z"/>
<path class="st8" d="M232.3,55h-16c0,0-0.7-0.1-0.8-0.2s-0.4-0.7-0.4-0.7s-0.2-0.6-0.5,0.4l-0.2,0.8c0,0-0.2,0.8-0.4-0.6
	s-0.3-1.9-0.3-1.9s-0.5-0.9-0.5,0.1v4.5c0,0,0,1.2-0.2,1.2s-0.5,0.2-0.5-0.7v-7.3c0,0,0.1-0.8-0.5-0.9c0,0-0.4,0-0.4,0.7V59
	c0,0,0.1,0.5-0.6,0.5c0,0-0.2,0.1-0.3-0.6v-9.6c0,0-0.2-1.2-0.9-0.2v10.5c0,0,0.1,0.8-0.5,0.8 M186.8,55h15.6c0,0,0.7-0.1,0.8-0.2
	s0.4-0.7,0.4-0.7s0.2-0.6,0.5,0.4l0.2,0.8c0,0,0.1,0.8,0.4-0.6s0.3-1.9,0.3-1.9s0.5-0.9,0.5,0.1v4.5c0,0,0,1.2,0.2,1.2
	s0.5,0.2,0.5-0.7v-7.3c0,0-0.1-0.8,0.5-0.9c0,0,0.4,0,0.4,0.7V59c0,0-0.1,0.5,0.6,0.5c0,0,0.2,0.1,0.3-0.6v-9.6c0,0,0.3-1.2,1-0.2
	v10.5c0,0-0.1,0.8,0.5,0.8"/>
<line class="st9" x1="184.3" y1="62" x2="234.8" y2="62"/>
<path class="st10" d="M199.2,60l1,0.9 M189.6,60.9l1-0.9"/>
<path class="st1" d="M190.5,50.8c-0.2,0.2-0.5,0.4-0.8,0.6h-0.2v9.5l4.9-1.6c0,0,0.3,0.6,1,0h0.1l4.7,1.5v-9.4h-0.1
	c-0.3-0.2-0.7-0.4-0.9-0.7"/>
<path class="st8" d="M190.5,50.9c-0.2,0.2-0.5,0.4-0.8,0.6h-0.2v9.4l4.9-1.6c0,0,0.3,0.5,0.9,0h0.1l4.7,1.5v-9.4h-0.1
	c-0.3-0.2-0.7-0.4-0.9-0.7"/>
<path class="st1" d="M190.9,50.7c0,0,0.6,0.3,1.6-0.5s2.4-0.1,2.4,0.5v7.9c0,0-1.1-1.2-2.8,0.4c-0.4,0.5-0.9,0.8-1.5,0.9v-9.3
	L190.9,50.7z"/>
<path class="st8" d="M190.9,50.8c0,0,0.6,0.3,1.6-0.5s2.3-0.1,2.4,0.5v7.9c0,0-1.1-1.2-2.8,0.4c-0.4,0.5-0.9,0.8-1.5,0.9v-9.3
	L190.9,50.8z"/>
<path class="st1" d="M198.8,50.7c0,0-0.6,0.3-1.6-0.5s-2.4-0.1-2.4,0.5v7.9c0,0,1.1-1.2,2.8,0.4c0.4,0.5,0.9,0.8,1.5,0.9v-9.4
	L198.8,50.7z"/>
<path class="st8" d="M198.8,50.8c0,0-0.6,0.3-1.6-0.5s-2.3-0.1-2.4,0.5v7.9c0,0,1.1-1.2,2.8,0.4c0.4,0.5,0.9,0.8,1.5,0.9v-9.3
	L198.8,50.8z"/>
<path class="st2" d="M189.5,51.5c0.5,0,0.9-0.3,1-0.8V60l-1,0.9V51.5z"/>
<path class="st11" d="M189.5,51.5c0.4,0,0.8-0.3,0.9-0.8V60l-0.9,0.9V51.5z"/>
<path class="st2" d="M200.1,51.4c-0.5,0-0.9-0.3-1-0.8V60l1,0.9V51.4z"/>
<path class="st8" d="M200.1,51.4c-0.4,0-0.8-0.3-0.9-0.8V60l0.9,0.9V51.4z"/>
<path class="st1" d="M194.3,59.2c0.1-0.2,0.2-0.3,0.4-0.4"/>
<path class="st10" d="M194.4,59.2c0.1-0.2,0.2-0.3,0.4-0.4"/>
<path class="st1" d="M195.4,59.3c-0.1-0.2-0.2-0.4-0.4-0.5"/>
<path class="st10" d="M195.4,59.3c-0.1-0.2-0.2-0.4-0.4-0.5"/>
<path class="st10" d="M228.3,59.8l1,0.9 M218.7,60.7l1-0.9"/>
<path class="st1" d="M219.6,50.7c-0.2,0.2-0.5,0.4-0.8,0.6h-0.2v9.5l4.9-1.6c0,0,0.3,0.6,1,0h0.1l4.7,1.5v-9.4h-0.1
	c-0.4-0.1-0.7-0.4-0.9-0.7"/>
<path class="st8" d="M219.6,50.7c-0.2,0.2-0.5,0.4-0.8,0.6h-0.2v9.4l4.9-1.6c0,0,0.3,0.5,1,0h0.1l4.7,1.5v-9.3h-0.1
	c-0.4-0.1-0.7-0.4-0.9-0.7"/>
<path class="st1" d="M220,50.5c0,0,0.6,0.3,1.6-0.5s2.4-0.1,2.4,0.5v7.9c0,0-1.1-1.2-2.8,0.4c-0.4,0.5-0.9,0.8-1.5,0.9v-9.4
	L220,50.5z"/>
<path class="st8" d="M220,50.6c0,0,0.6,0.3,1.6-0.5s2.3-0.1,2.4,0.5v7.9c0,0-1.1-1.2-2.8,0.4c-0.4,0.5-0.9,0.8-1.5,0.9v-9.3
	L220,50.6z"/>
<path class="st1" d="M227.9,50.5c0,0-0.6,0.3-1.6-0.5S224,50,224,50.6v7.9c0,0,1.1-1.2,2.8,0.4c0.4,0.5,0.9,0.8,1.5,0.9v-9.3
	L227.9,50.5z"/>
<path class="st8" d="M227.9,50.6c0,0-0.6,0.3-1.6-0.5S224,50,224,50.6v7.9c0,0,1.1-1.2,2.8,0.4c0.4,0.5,0.9,0.8,1.5,0.9v-9.3
	L227.9,50.6z"/>
<path class="st2" d="M218.6,51.3c0.5,0,0.9-0.3,1-0.8v9.3l-1,0.9V51.3z"/>
<path class="st11" d="M218.6,51.3c0.4,0,0.8-0.3,0.9-0.8v9.3l-0.9,0.9V51.3z"/>
<path class="st2" d="M229.3,51.2c-0.5,0-0.9-0.3-1-0.8v9.3l1,0.9V51.2z"/>
<path class="st8" d="M229.2,51.2c-0.4,0-0.8-0.3-0.9-0.7v9.3l0.9,0.9V51.2z"/>
<path class="st1" d="M223.4,59c0.1-0.2,0.2-0.4,0.4-0.5"/>
<path class="st10" d="M223.5,59c0.1-0.2,0.2-0.3,0.4-0.4"/>
<path class="st1" d="M224.5,59.1c-0.1-0.2-0.2-0.4-0.4-0.5"/>
<path class="st10" d="M224.5,59.1c-0.1-0.2-0.2-0.4-0.4-0.5"/>
<path d="M232,51.5l-0.1-0.2l0,0c-0.6-2.1-2-3.9-3.8-5c-1-0.6-2.2-0.9-3.4-0.9c-0.1,0-0.2,0-0.4,0l0.1,0.5v-0.5h-28.1v1.1h28.2h0.3
	c1,0,2,0.3,2.8,0.8c1.6,1,2.8,2.6,3.3,4.4l0.5-0.2l-0.6,0.1l0.1,0.3l0,0l8.3,25l0,0v0.1c0.3,1,0.4,2.1,0.4,3.1
	c0,0.9-0.1,1.9-0.5,2.7c-0.4,0.9-1,1.7-1.9,2.3l0,0l-0.2,0.2l-23.6,16.2l0,0l0,0c-1.2,0.9-2.7,1.4-4.2,1.4c-1.7,0-3.4-0.6-4.7-1.7
	l0,0l-0.3-0.2l-21.2-15.1l0,0h-0.1c-0.7-0.6-1.4-1.2-2-1.9c-1-1.2-1.6-2.7-1.7-4.3c0-0.7,0.1-1.3,0.3-1.9l8.9-26.5V51
	c0.2-0.9,0.7-1.8,1.4-2.5c1.5-1.5,3.6-2.3,5.8-2.2l0,0h0.5v-1.1h-0.5c-3.6,0-5.7,1.4-6.9,2.8c-0.7,0.8-1.2,1.8-1.4,2.8l0.6,0.1
	l-0.5-0.2l-8.8,26.5l0,0c-0.3,0.7-0.4,1.5-0.4,2.3c0.1,1.9,0.8,3.8,2.1,5.2c0.6,0.7,1.3,1.4,2.1,1.9l0.3-0.4l-0.3,0.4l21.2,15.1
	l0.3,0.1l0.3-0.5L204,102c1.6,1.2,3.4,1.8,5.4,1.9c1.8,0,3.6-0.6,5-1.7l-0.4-0.4l0.3,0.4L237.9,86l0.2-0.2l-0.4-0.4l0.3,0.4
	c1-0.7,1.8-1.7,2.2-2.8c0.4-1,0.6-2.1,0.6-3.1c0-1.2-0.2-2.4-0.5-3.5"/>
<rect x="56" y="8" class="st5" width="200" height="200"/>
</svg>
